<svg xmlns="http://www.w3.org/2000/svg" xmlns:ev="http://www.w3.org/2001/xml-events" xmlns:xlink="http://www.w3.org/1999/xlink" width="200mm" height="98mm" baseProfile="full" version="1.1" viewBox="0 0 200 98"><rect width="200" height="98" x="0" y="0" fill="#222"/><text style="font-size:12px;font-family:Arial;font-weight:700" x="10" y="20" fill="#FFF">2025 Running</text><text style="font-size:4px;font-family:Arial" x="10" y="78" fill="#FFF">Runner</text><text style="font-size:9px;font-family:Arial" x="10" y="88" fill="#FFF">gokure</text><text style="font-size:4px;font-family:Arial" x="65" y="78" fill="#FFF">SPECIAL TRACKS</text><rect width="2.6" height="2.6" x="65" y="81" fill="#ff0"/><text style="font-size:3px;font-family:Arial" x="70" y="83.5" fill="#FFF">Over 10.0 km</text><rect width="2.6" height="2.6" x="65" y="85" fill="red"/><text style="font-size:3px;font-family:Arial" x="70" y="87.5" fill="#FFF">Over 20.0 km</text><text style="font-size:4px;font-family:Arial" x="120" y="78" fill="#FFF">STATISTICS</text><text style="font-size:3px;font-family:Arial" x="120" y="83" fill="#FFF">Number: 146</text><text style="font-size:3px;font-family:Arial" x="120" y="88" fill="#FFF">Weekly: 5.8</text><text style="font-size:3px;font-family:Arial" x="141" y="83" fill="#FFF">Total: 2248.8 km</text><text style="font-size:3px;font-family:Arial" x="141" y="88" fill="#FFF">Avg: 15.4 km</text><text style="font-size:3px;font-family:Arial" x="167" y="83" fill="#FFF">Min: 2.4 km</text><text style="font-size:3px;font-family:Arial" x="167" y="88" fill="#FFF">Max: 42.4 km</text><text style="font-size:10px;font-family:Arial" x="10" y="30" fill="#FFF" dominant-baseline="hanging">2025</text><text style="font-size:4.125px;font-family:Arial" x="175" y="35" fill="#FFF" dominant-baseline="hanging">2248.8 km</text><text style="font-size:2.5px;font-family:Arial" x="10" y="44" fill="#FFF">Jan</text><text style="font-size:2.5px;font-family:Arial" x="25.5" y="44" fill="#FFF">Feb</text><text style="font-size:2.5px;font-family:Arial" x="41" y="44" fill="#FFF">Mar</text><text style="font-size:2.5px;font-family:Arial" x="56.5" y="44" fill="#FFF">Apr</text><text style="font-size:2.5px;font-family:Arial" x="72" y="44" fill="#FFF">May</text><text style="font-size:2.5px;font-family:Arial" x="87.5" y="44" fill="#FFF">Jun</text><text style="font-size:2.5px;font-family:Arial" x="103" y="44" fill="#FFF">Jul</text><text style="font-size:2.5px;font-family:Arial" x="118.5" y="44" fill="#FFF">Aug</text><text style="font-size:2.5px;font-family:Arial" x="134" y="44" fill="#FFF">Sep</text><text style="font-size:2.5px;font-family:Arial" x="149.5" y="44" fill="#FFF">Oct</text><text style="font-size:2.5px;font-family:Arial" x="165" y="44" fill="#FFF">Nov</text><text style="font-size:2.5px;font-family:Arial" x="180.5" y="44" fill="#FFF">Dec</text><rect width="2.6" height="2.6" x="10" y="52.5" fill="red"><title>2025-01-01 23.9 km</title></rect><rect width="2.6" height="2.6" x="10" y="56" fill="#ffc900"><title>2025-01-02 12.3 km</title></rect><rect width="2.6" height="2.6" x="10" y="59.5" fill="#ffc900"><title>2025-01-03 12.3 km</title></rect><rect width="2.6" height="2.6" x="10" y="63" fill="red"><title>2025-01-04 35.0 km</title></rect><rect width="2.6" height="2.6" x="10" y="66.5" fill="red"><title>2025-01-05 24.0 km</title></rect><rect width="2.6" height="2.6" x="13.5" y="45.5" fill="#ffc900"><title>2025-01-06 12.3 km</title></rect><rect width="2.6" height="2.6" x="13.5" y="49" fill="#ffc900"><title>2025-01-07 12.3 km</title></rect><rect width="2.6" height="2.6" x="13.5" y="52.5" fill="#ffc900"><title>2025-01-08 12.3 km</title></rect><rect width="2.6" height="2.6" x="13.5" y="56" fill="#ffc900"><title>2025-01-09 12.3 km</title></rect><rect width="2.6" height="2.6" x="13.5" y="59.5" fill="#ffc900"><title>2025-01-10 12.4 km</title></rect><rect width="2.6" height="2.6" x="13.5" y="63" fill="red"><title>2025-01-11 24.3 km</title></rect><rect width="2.6" height="2.6" x="13.5" y="66.5" fill="red"><title>2025-01-12 24.3 km</title></rect><rect width="2.6" height="2.6" x="17" y="45.5" fill="#ffc900"><title>2025-01-13 12.3 km</title></rect><rect width="2.6" height="2.6" x="17" y="49" fill="#ffc900"><title>2025-01-14 12.3 km</title></rect><rect width="2.6" height="2.6" x="17" y="52.5" fill="#ffc900"><title>2025-01-15 12.4 km</title></rect><rect width="2.6" height="2.6" x="17" y="56" fill="#ffc900"><title>2025-01-16 12.3 km</title></rect><rect width="2.6" height="2.6" x="17" y="59.5" fill="#ffc900"><title>2025-01-17 12.3 km</title></rect><rect width="2.6" height="2.6" x="17" y="63" fill="red"><title>2025-01-18 32.3 km</title></rect><rect width="2.6" height="2.6" x="17" y="66.5" fill="red"><title>2025-01-19 24.3 km</title></rect><rect width="2.6" height="2.6" x="20.5" y="45.5" fill="#ffc900"><title>2025-01-20 12.3 km</title></rect><rect width="2.6" height="2.6" x="20.5" y="49" fill="#ffc900"><title>2025-01-21 12.3 km</title></rect><rect width="2.6" height="2.6" x="20.5" y="52.5" fill="#ffc900"><title>2025-01-22 12.3 km</title></rect><rect width="2.6" height="2.6" x="20.5" y="56" fill="#ffc900"><title>2025-01-23 12.3 km</title></rect><rect width="2.6" height="2.6" x="20.5" y="59.5" fill="#ffc900"><title>2025-01-24 12.3 km</title></rect><rect width="2.6" height="2.6" x="20.5" y="63" fill="red"><title>2025-01-25 24.1 km</title></rect><rect width="2.6" height="2.6" x="20.5" y="66.5" fill="red"><title>2025-01-26 24.3 km</title></rect><rect width="2.6" height="2.6" x="24" y="45.5" fill="#444"><title>2025-01-27</title></rect><rect width="2.6" height="2.6" x="24" y="49" fill="#444"><title>2025-01-28</title></rect><rect width="2.6" height="2.6" x="24" y="52.5" fill="#444"><title>2025-01-29</title></rect><rect width="2.6" height="2.6" x="24" y="56" fill="#444"><title>2025-01-30</title></rect><rect width="2.6" height="2.6" x="24" y="59.5" fill="#444"><title>2025-01-31</title></rect><rect width="2.6" height="2.6" x="24" y="63" fill="#444"><title>2025-02-01</title></rect><rect width="2.6" height="2.6" x="24" y="66.5" fill="#4dd2ff"><title>2025-02-02 8.8 km</title></rect><rect width="2.6" height="2.6" x="27.5" y="45.5" fill="#444"><title>2025-02-03</title></rect><rect width="2.6" height="2.6" x="27.5" y="49" fill="#444"><title>2025-02-04</title></rect><rect width="2.6" height="2.6" x="27.5" y="52.5" fill="#444"><title>2025-02-05</title></rect><rect width="2.6" height="2.6" x="27.5" y="56" fill="#444"><title>2025-02-06</title></rect><rect width="2.6" height="2.6" x="27.5" y="59.5" fill="#444"><title>2025-02-07</title></rect><rect width="2.6" height="2.6" x="27.5" y="63" fill="#444"><title>2025-02-08</title></rect><rect width="2.6" height="2.6" x="27.5" y="66.5" fill="#ffca00"><title>2025-02-09 12.3 km</title></rect><rect width="2.6" height="2.6" x="31" y="45.5" fill="#444"><title>2025-02-10</title></rect><rect width="2.6" height="2.6" x="31" y="49" fill="#ffc900"><title>2025-02-11 12.3 km</title></rect><rect width="2.6" height="2.6" x="31" y="52.5" fill="#ffc900"><title>2025-02-12 12.3 km</title></rect><rect width="2.6" height="2.6" x="31" y="56" fill="#ffc900"><title>2025-02-13 12.3 km</title></rect><rect width="2.6" height="2.6" x="31" y="59.5" fill="#ffc900"><title>2025-02-14 12.3 km</title></rect><rect width="2.6" height="2.6" x="31" y="63" fill="#444"><title>2025-02-15</title></rect><rect width="2.6" height="2.6" x="31" y="66.5" fill="red"><title>2025-02-16 31.0 km</title></rect><rect width="2.6" height="2.6" x="34.5" y="45.5" fill="#ffc900"><title>2025-02-17 12.3 km</title></rect><rect width="2.6" height="2.6" x="34.5" y="49" fill="#ffc900"><title>2025-02-18 12.3 km</title></rect><rect width="2.6" height="2.6" x="34.5" y="52.5" fill="#444"><title>2025-02-19</title></rect><rect width="2.6" height="2.6" x="34.5" y="56" fill="#ffc900"><title>2025-02-20 12.3 km</title></rect><rect width="2.6" height="2.6" x="34.5" y="59.5" fill="#ffc900"><title>2025-02-21 12.3 km</title></rect><rect width="2.6" height="2.6" x="34.5" y="63" fill="red"><title>2025-02-22 35.1 km</title></rect><rect width="2.6" height="2.6" x="34.5" y="66.5" fill="red"><title>2025-02-23 24.2 km</title></rect><rect width="2.6" height="2.6" x="38" y="45.5" fill="#ffc900"><title>2025-02-24 12.3 km</title></rect><rect width="2.6" height="2.6" x="38" y="49" fill="#ffc900"><title>2025-02-25 12.3 km</title></rect><rect width="2.6" height="2.6" x="38" y="52.5" fill="#ffc900"><title>2025-02-26 12.3 km</title></rect><rect width="2.6" height="2.6" x="38" y="56" fill="#ffc900"><title>2025-02-27 12.3 km</title></rect><rect width="2.6" height="2.6" x="38" y="59.5" fill="#ffc900"><title>2025-02-28 12.3 km</title></rect><rect width="2.6" height="2.6" x="38" y="63" fill="red"><title>2025-03-01 34.6 km</title></rect><rect width="2.6" height="2.6" x="38" y="66.5" fill="red"><title>2025-03-02 24.2 km</title></rect><rect width="2.6" height="2.6" x="41.5" y="45.5" fill="#ffc900"><title>2025-03-03 12.3 km</title></rect><rect width="2.6" height="2.6" x="41.5" y="49" fill="#ffc900"><title>2025-03-04 12.3 km</title></rect><rect width="2.6" height="2.6" x="41.5" y="52.5" fill="#ffc900"><title>2025-03-05 12.3 km</title></rect><rect width="2.6" height="2.6" x="41.5" y="56" fill="#ffc900"><title>2025-03-06 12.3 km</title></rect><rect width="2.6" height="2.6" x="41.5" y="59.5" fill="#ffc900"><title>2025-03-07 12.3 km</title></rect><rect width="2.6" height="2.6" x="41.5" y="63" fill="red"><title>2025-03-08 35.0 km</title></rect><rect width="2.6" height="2.6" x="41.5" y="66.5" fill="#ffcb00"><title>2025-03-09 12.1 km</title></rect><rect width="2.6" height="2.6" x="45" y="45.5" fill="#ffc900"><title>2025-03-10 12.3 km</title></rect><rect width="2.6" height="2.6" x="45" y="49" fill="#ffc900"><title>2025-03-11 12.3 km</title></rect><rect width="2.6" height="2.6" x="45" y="52.5" fill="#ffc900"><title>2025-03-12 12.3 km</title></rect><rect width="2.6" height="2.6" x="45" y="56" fill="#ffc900"><title>2025-03-13 12.3 km</title></rect><rect width="2.6" height="2.6" x="45" y="59.5" fill="#ffc900"><title>2025-03-14 12.3 km</title></rect><rect width="2.6" height="2.6" x="45" y="63" fill="red"><title>2025-03-15 34.7 km</title></rect><rect width="2.6" height="2.6" x="45" y="66.5" fill="#ffc300"><title>2025-03-16 13.3 km</title></rect><rect width="2.6" height="2.6" x="48.5" y="45.5" fill="#ffc900"><title>2025-03-17 12.3 km</title></rect><rect width="2.6" height="2.6" x="48.5" y="49" fill="#ffc900"><title>2025-03-18 12.3 km</title></rect><rect width="2.6" height="2.6" x="48.5" y="52.5" fill="#ffc900"><title>2025-03-19 12.3 km</title></rect><rect width="2.6" height="2.6" x="48.5" y="56" fill="#ffc900"><title>2025-03-20 12.3 km</title></rect><rect width="2.6" height="2.6" x="48.5" y="59.5" fill="#444"><title>2025-03-21</title></rect><rect width="2.6" height="2.6" x="48.5" y="63" fill="red"><title>2025-03-22 24.0 km</title></rect><rect width="2.6" height="2.6" x="48.5" y="66.5" fill="red"><title>2025-03-23 23.9 km</title></rect><rect width="2.6" height="2.6" x="52" y="45.5" fill="#444"><title>2025-03-24</title></rect><rect width="2.6" height="2.6" x="52" y="49" fill="#ffc900"><title>2025-03-25 12.3 km</title></rect><rect width="2.6" height="2.6" x="52" y="52.5" fill="#ffc900"><title>2025-03-26 12.3 km</title></rect><rect width="2.6" height="2.6" x="52" y="56" fill="#ffc900"><title>2025-03-27 12.3 km</title></rect><rect width="2.6" height="2.6" x="52" y="59.5" fill="#444"><title>2025-03-28</title></rect><rect width="2.6" height="2.6" x="52" y="63" fill="#444"><title>2025-03-29</title></rect><rect width="2.6" height="2.6" x="52" y="66.5" fill="red"><title>2025-03-30 42.4 km</title></rect><rect width="2.6" height="2.6" x="55.5" y="45.5" fill="#444"><title>2025-03-31</title></rect><rect width="2.6" height="2.6" x="55.5" y="49" fill="#ffd300"><title>2025-04-01 10.8 km</title></rect><rect width="2.6" height="2.6" x="55.5" y="52.5" fill="#ffd300"><title>2025-04-02 10.8 km</title></rect><rect width="2.6" height="2.6" x="55.5" y="56" fill="#ffc900"><title>2025-04-03 12.3 km</title></rect><rect width="2.6" height="2.6" x="55.5" y="59.5" fill="#444"><title>2025-04-04</title></rect><rect width="2.6" height="2.6" x="55.5" y="63" fill="#444"><title>2025-04-05</title></rect><rect width="2.6" height="2.6" x="55.5" y="66.5" fill="#444"><title>2025-04-06</title></rect><rect width="2.6" height="2.6" x="59" y="45.5" fill="#ffc900"><title>2025-04-07 12.3 km</title></rect><rect width="2.6" height="2.6" x="59" y="49" fill="#ffca00"><title>2025-04-08 12.3 km</title></rect><rect width="2.6" height="2.6" x="59" y="52.5" fill="#ffc900"><title>2025-04-09 12.3 km</title></rect><rect width="2.6" height="2.6" x="59" y="56" fill="#ffc900"><title>2025-04-10 12.3 km</title></rect><rect width="2.6" height="2.6" x="59" y="59.5" fill="#ffca00"><title>2025-04-11 12.2 km</title></rect><rect width="2.6" height="2.6" x="59" y="63" fill="red"><title>2025-04-12 21.4 km</title></rect><rect width="2.6" height="2.6" x="59" y="66.5" fill="red"><title>2025-04-13 21.0 km</title></rect><rect width="2.6" height="2.6" x="62.5" y="45.5" fill="#ffca00"><title>2025-04-14 12.2 km</title></rect><rect width="2.6" height="2.6" x="62.5" y="49" fill="#ffca00"><title>2025-04-15 12.2 km</title></rect><rect width="2.6" height="2.6" x="62.5" y="52.5" fill="#444"><title>2025-04-16</title></rect><rect width="2.6" height="2.6" x="62.5" y="56" fill="#ffc900"><title>2025-04-17 12.3 km</title></rect><rect width="2.6" height="2.6" x="62.5" y="59.5" fill="#ffc900"><title>2025-04-18 12.3 km</title></rect><rect width="2.6" height="2.6" x="62.5" y="63" fill="red"><title>2025-04-19 34.7 km</title></rect><rect width="2.6" height="2.6" x="62.5" y="66.5" fill="#ff9800"><title>2025-04-20 19.7 km</title></rect><rect width="2.6" height="2.6" x="66" y="45.5" fill="#ffc900"><title>2025-04-21 12.3 km</title></rect><rect width="2.6" height="2.6" x="66" y="49" fill="#ffca00"><title>2025-04-22 12.3 km</title></rect><rect width="2.6" height="2.6" x="66" y="52.5" fill="#ffc900"><title>2025-04-23 12.3 km</title></rect><rect width="2.6" height="2.6" x="66" y="56" fill="#ffc900"><title>2025-04-24 12.3 km</title></rect><rect width="2.6" height="2.6" x="66" y="59.5" fill="#ffc900"><title>2025-04-25 12.3 km</title></rect><rect width="2.6" height="2.6" x="66" y="63" fill="red"><title>2025-04-26 22.8 km</title></rect><rect width="2.6" height="2.6" x="66" y="66.5" fill="#ffc900"><title>2025-04-27 12.3 km</title></rect><rect width="2.6" height="2.6" x="69.5" y="45.5" fill="#ffc900"><title>2025-04-28 12.3 km</title></rect><rect width="2.6" height="2.6" x="69.5" y="49" fill="#ffc900"><title>2025-04-29 12.3 km</title></rect><rect width="2.6" height="2.6" x="69.5" y="52.5" fill="#ffc900"><title>2025-04-30 12.3 km</title></rect><rect width="2.6" height="2.6" x="69.5" y="56" fill="#4dd2ff"><title>2025-05-01 4.3 km</title></rect><rect width="2.6" height="2.6" x="69.5" y="59.5" fill="#444"><title>2025-05-02</title></rect><rect width="2.6" height="2.6" x="69.5" y="63" fill="#4dd2ff"><title>2025-05-03 5.0 km</title></rect><rect width="2.6" height="2.6" x="69.5" y="66.5" fill="#4dd2ff"><title>2025-05-04 5.0 km</title></rect><rect width="2.6" height="2.6" x="73" y="45.5" fill="#ffc900"><title>2025-05-05 12.3 km</title></rect><rect width="2.6" height="2.6" x="73" y="49" fill="#ffca00"><title>2025-05-06 12.3 km</title></rect><rect width="2.6" height="2.6" x="73" y="52.5" fill="#ffc900"><title>2025-05-07 12.3 km</title></rect><rect width="2.6" height="2.6" x="73" y="56" fill="#ffc900"><title>2025-05-08 12.3 km</title></rect><rect width="2.6" height="2.6" x="73" y="59.5" fill="#ffca00"><title>2025-05-09 12.2 km</title></rect><rect width="2.6" height="2.6" x="73" y="63" fill="red"><title>2025-05-10 30.1 km</title></rect><rect width="2.6" height="2.6" x="73" y="66.5" fill="red"><title>2025-05-11 24.0 km</title></rect><rect width="2.6" height="2.6" x="76.5" y="45.5" fill="#ffc900"><title>2025-05-12 12.3 km</title></rect><rect width="2.6" height="2.6" x="76.5" y="49" fill="#ffc900"><title>2025-05-13 12.3 km</title></rect><rect width="2.6" height="2.6" x="76.5" y="52.5" fill="#ffc900"><title>2025-05-14 12.3 km</title></rect><rect width="2.6" height="2.6" x="76.5" y="56" fill="#ffc900"><title>2025-05-15 12.3 km</title></rect><rect width="2.6" height="2.6" x="76.5" y="59.5" fill="#444"><title>2025-05-16</title></rect><rect width="2.6" height="2.6" x="76.5" y="63" fill="red"><title>2025-05-17 21.7 km</title></rect><rect width="2.6" height="2.6" x="76.5" y="66.5" fill="red"><title>2025-05-18 23.0 km</title></rect><rect width="2.6" height="2.6" x="80" y="45.5" fill="#ffc900"><title>2025-05-19 12.3 km</title></rect><rect width="2.6" height="2.6" x="80" y="49" fill="#ffc900"><title>2025-05-20 12.3 km</title></rect><rect width="2.6" height="2.6" x="80" y="52.5" fill="#ffca00"><title>2025-05-21 12.2 km</title></rect><rect width="2.6" height="2.6" x="80" y="56" fill="#ffc900"><title>2025-05-22 12.3 km</title></rect><rect width="2.6" height="2.6" x="80" y="59.5" fill="#ffca00"><title>2025-05-23 12.3 km</title></rect><rect width="2.6" height="2.6" x="80" y="63" fill="red"><title>2025-05-24 34.6 km</title></rect><rect width="2.6" height="2.6" x="80" y="66.5" fill="#ffb000"><title>2025-05-25 16.0 km</title></rect><rect width="2.6" height="2.6" x="83.5" y="45.5" fill="#ffc900"><title>2025-05-26 12.3 km</title></rect><rect width="2.6" height="2.6" x="83.5" y="49" fill="#ffc900"><title>2025-05-27 12.3 km</title></rect><rect width="2.6" height="2.6" x="83.5" y="52.5" fill="#ffca00"><title>2025-05-28 12.3 km</title></rect><rect width="2.6" height="2.6" x="83.5" y="56" fill="#ffc900"><title>2025-05-29 12.3 km</title></rect><rect width="2.6" height="2.6" x="83.5" y="59.5" fill="#ffc900"><title>2025-05-30 12.3 km</title></rect><rect width="2.6" height="2.6" x="83.5" y="63" fill="#ffd300"><title>2025-05-31 10.8 km</title></rect><rect width="2.6" height="2.6" x="83.5" y="66.5" fill="#444"><title>2025-06-01</title></rect><rect width="2.6" height="2.6" x="87" y="45.5" fill="#444"><title>2025-06-02</title></rect><rect width="2.6" height="2.6" x="87" y="49" fill="#444"><title>2025-06-03</title></rect><rect width="2.6" height="2.6" x="87" y="52.5" fill="#ffc900"><title>2025-06-04 12.3 km</title></rect><rect width="2.6" height="2.6" x="87" y="56" fill="#444"><title>2025-06-05</title></rect><rect width="2.6" height="2.6" x="87" y="59.5" fill="#ffc900"><title>2025-06-06 12.3 km</title></rect><rect width="2.6" height="2.6" x="87" y="63" fill="red"><title>2025-06-07 37.2 km</title></rect><rect width="2.6" height="2.6" x="87" y="66.5" fill="red"><title>2025-06-08 24.0 km</title></rect><rect width="2.6" height="2.6" x="90.5" y="45.5" fill="#ffd300"><title>2025-06-09 10.8 km</title></rect><rect width="2.6" height="2.6" x="90.5" y="49" fill="#ffc900"><title>2025-06-10 12.3 km</title></rect><rect width="2.6" height="2.6" x="90.5" y="52.5" fill="#ffc900"><title>2025-06-11 12.3 km</title></rect><rect width="2.6" height="2.6" x="90.5" y="56" fill="#ffc900"><title>2025-06-12 12.3 km</title></rect><rect width="2.6" height="2.6" x="90.5" y="59.5" fill="#ffc900"><title>2025-06-13 12.3 km</title></rect><rect width="2.6" height="2.6" x="90.5" y="63" fill="red"><title>2025-06-14 30.8 km</title></rect><rect width="2.6" height="2.6" x="90.5" y="66.5" fill="red"><title>2025-06-15 24.0 km</title></rect><rect width="2.6" height="2.6" x="94" y="45.5" fill="#ffca00"><title>2025-06-16 12.3 km</title></rect><rect width="2.6" height="2.6" x="94" y="49" fill="#ffc900"><title>2025-06-17 12.3 km</title></rect><rect width="2.6" height="2.6" x="94" y="52.5" fill="#ffc900"><title>2025-06-18 12.3 km</title></rect><rect width="2.6" height="2.6" x="94" y="56" fill="#ffc900"><title>2025-06-19 12.3 km</title></rect><rect width="2.6" height="2.6" x="94" y="59.5" fill="#ffcb00"><title>2025-06-20 12.0 km</title></rect><rect width="2.6" height="2.6" x="94" y="63" fill="red"><title>2025-06-21 33.5 km</title></rect><rect width="2.6" height="2.6" x="94" y="66.5" fill="#444"><title>2025-06-22</title></rect><rect width="2.6" height="2.6" x="97.5" y="45.5" fill="#444"><title>2025-06-23</title></rect><rect width="2.6" height="2.6" x="97.5" y="49" fill="#444"><title>2025-06-24</title></rect><rect width="2.6" height="2.6" x="97.5" y="52.5" fill="#444"><title>2025-06-25</title></rect><rect width="2.6" height="2.6" x="97.5" y="56" fill="#444"><title>2025-06-26</title></rect><rect width="2.6" height="2.6" x="97.5" y="59.5" fill="#444"><title>2025-06-27</title></rect><rect width="2.6" height="2.6" x="97.5" y="63" fill="#444"><title>2025-06-28</title></rect><rect width="2.6" height="2.6" x="97.5" y="66.5" fill="#444"><title>2025-06-29</title></rect><rect width="2.6" height="2.6" x="101" y="45.5" fill="#444"><title>2025-06-30</title></rect><rect width="2.6" height="2.6" x="101" y="49" fill="#444"><title>2025-07-01</title></rect><rect width="2.6" height="2.6" x="101" y="52.5" fill="#444"><title>2025-07-02</title></rect><rect width="2.6" height="2.6" x="101" y="56" fill="#444"><title>2025-07-03</title></rect><rect width="2.6" height="2.6" x="101" y="59.5" fill="#444"><title>2025-07-04</title></rect><rect width="2.6" height="2.6" x="101" y="63" fill="#444"><title>2025-07-05</title></rect><rect width="2.6" height="2.6" x="101" y="66.5" fill="#444"><title>2025-07-06</title></rect><rect width="2.6" height="2.6" x="104.5" y="45.5" fill="#444"><title>2025-07-07</title></rect><rect width="2.6" height="2.6" x="104.5" y="49" fill="#444"><title>2025-07-08</title></rect><rect width="2.6" height="2.6" x="104.5" y="52.5" fill="#444"><title>2025-07-09</title></rect><rect width="2.6" height="2.6" x="104.5" y="56" fill="#444"><title>2025-07-10</title></rect><rect width="2.6" height="2.6" x="104.5" y="59.5" fill="#444"><title>2025-07-11</title></rect><rect width="2.6" height="2.6" x="104.5" y="63" fill="#444"><title>2025-07-12</title></rect><rect width="2.6" height="2.6" x="104.5" y="66.5" fill="#444"><title>2025-07-13</title></rect><rect width="2.6" height="2.6" x="108" y="45.5" fill="#444"><title>2025-07-14</title></rect><rect width="2.6" height="2.6" x="108" y="49" fill="#444"><title>2025-07-15</title></rect><rect width="2.6" height="2.6" x="108" y="52.5" fill="#444"><title>2025-07-16</title></rect><rect width="2.6" height="2.6" x="108" y="56" fill="#444"><title>2025-07-17</title></rect><rect width="2.6" height="2.6" x="108" y="59.5" fill="#444"><title>2025-07-18</title></rect><rect width="2.6" height="2.6" x="108" y="63" fill="#444"><title>2025-07-19</title></rect><rect width="2.6" height="2.6" x="108" y="66.5" fill="#444"><title>2025-07-20</title></rect><rect width="2.6" height="2.6" x="111.5" y="45.5" fill="#444"><title>2025-07-21</title></rect><rect width="2.6" height="2.6" x="111.5" y="49" fill="#444"><title>2025-07-22</title></rect><rect width="2.6" height="2.6" x="111.5" y="52.5" fill="#444"><title>2025-07-23</title></rect><rect width="2.6" height="2.6" x="111.5" y="56" fill="#444"><title>2025-07-24</title></rect><rect width="2.6" height="2.6" x="111.5" y="59.5" fill="#444"><title>2025-07-25</title></rect><rect width="2.6" height="2.6" x="111.5" y="63" fill="#444"><title>2025-07-26</title></rect><rect width="2.6" height="2.6" x="111.5" y="66.5" fill="#444"><title>2025-07-27</title></rect><rect width="2.6" height="2.6" x="115" y="45.5" fill="#444"><title>2025-07-28</title></rect><rect width="2.6" height="2.6" x="115" y="49" fill="#444"><title>2025-07-29</title></rect><rect width="2.6" height="2.6" x="115" y="52.5" fill="#444"><title>2025-07-30</title></rect><rect width="2.6" height="2.6" x="115" y="56" fill="#444"><title>2025-07-31</title></rect><rect width="2.6" height="2.6" x="115" y="59.5" fill="#444"><title>2025-08-01</title></rect><rect width="2.6" height="2.6" x="115" y="63" fill="#444"><title>2025-08-02</title></rect><rect width="2.6" height="2.6" x="115" y="66.5" fill="#444"><title>2025-08-03</title></rect><rect width="2.6" height="2.6" x="118.5" y="45.5" fill="#444"><title>2025-08-04</title></rect><rect width="2.6" height="2.6" x="118.5" y="49" fill="#444"><title>2025-08-05</title></rect><rect width="2.6" height="2.6" x="118.5" y="52.5" fill="#444"><title>2025-08-06</title></rect><rect width="2.6" height="2.6" x="118.5" y="56" fill="#444"><title>2025-08-07</title></rect><rect width="2.6" height="2.6" x="118.5" y="59.5" fill="#444"><title>2025-08-08</title></rect><rect width="2.6" height="2.6" x="118.5" y="63" fill="#444"><title>2025-08-09</title></rect><rect width="2.6" height="2.6" x="118.5" y="66.5" fill="#444"><title>2025-08-10</title></rect><rect width="2.6" height="2.6" x="122" y="45.5" fill="#444"><title>2025-08-11</title></rect><rect width="2.6" height="2.6" x="122" y="49" fill="#444"><title>2025-08-12</title></rect><rect width="2.6" height="2.6" x="122" y="52.5" fill="#444"><title>2025-08-13</title></rect><rect width="2.6" height="2.6" x="122" y="56" fill="#444"><title>2025-08-14</title></rect><rect width="2.6" height="2.6" x="122" y="59.5" fill="#444"><title>2025-08-15</title></rect><rect width="2.6" height="2.6" x="122" y="63" fill="#444"><title>2025-08-16</title></rect><rect width="2.6" height="2.6" x="122" y="66.5" fill="#444"><title>2025-08-17</title></rect><rect width="2.6" height="2.6" x="125.5" y="45.5" fill="#444"><title>2025-08-18</title></rect><rect width="2.6" height="2.6" x="125.5" y="49" fill="#444"><title>2025-08-19</title></rect><rect width="2.6" height="2.6" x="125.5" y="52.5" fill="#444"><title>2025-08-20</title></rect><rect width="2.6" height="2.6" x="125.5" y="56" fill="#444"><title>2025-08-21</title></rect><rect width="2.6" height="2.6" x="125.5" y="59.5" fill="#444"><title>2025-08-22</title></rect><rect width="2.6" height="2.6" x="125.5" y="63" fill="#444"><title>2025-08-23</title></rect><rect width="2.6" height="2.6" x="125.5" y="66.5" fill="#444"><title>2025-08-24</title></rect><rect width="2.6" height="2.6" x="129" y="45.5" fill="#444"><title>2025-08-25</title></rect><rect width="2.6" height="2.6" x="129" y="49" fill="#444"><title>2025-08-26</title></rect><rect width="2.6" height="2.6" x="129" y="52.5" fill="#444"><title>2025-08-27</title></rect><rect width="2.6" height="2.6" x="129" y="56" fill="#444"><title>2025-08-28</title></rect><rect width="2.6" height="2.6" x="129" y="59.5" fill="#444"><title>2025-08-29</title></rect><rect width="2.6" height="2.6" x="129" y="63" fill="#444"><title>2025-08-30</title></rect><rect width="2.6" height="2.6" x="129" y="66.5" fill="#444"><title>2025-08-31</title></rect><rect width="2.6" height="2.6" x="132.5" y="45.5" fill="#444"><title>2025-09-01</title></rect><rect width="2.6" height="2.6" x="132.5" y="49" fill="#444"><title>2025-09-02</title></rect><rect width="2.6" height="2.6" x="132.5" y="52.5" fill="#444"><title>2025-09-03</title></rect><rect width="2.6" height="2.6" x="132.5" y="56" fill="#444"><title>2025-09-04</title></rect><rect width="2.6" height="2.6" x="132.5" y="59.5" fill="#444"><title>2025-09-05</title></rect><rect width="2.6" height="2.6" x="132.5" y="63" fill="#444"><title>2025-09-06</title></rect><rect width="2.6" height="2.6" x="132.5" y="66.5" fill="#444"><title>2025-09-07</title></rect><rect width="2.6" height="2.6" x="136" y="45.5" fill="#444"><title>2025-09-08</title></rect><rect width="2.6" height="2.6" x="136" y="49" fill="#444"><title>2025-09-09</title></rect><rect width="2.6" height="2.6" x="136" y="52.5" fill="#444"><title>2025-09-10</title></rect><rect width="2.6" height="2.6" x="136" y="56" fill="#444"><title>2025-09-11</title></rect><rect width="2.6" height="2.6" x="136" y="59.5" fill="#444"><title>2025-09-12</title></rect><rect width="2.6" height="2.6" x="136" y="63" fill="#444"><title>2025-09-13</title></rect><rect width="2.6" height="2.6" x="136" y="66.5" fill="#444"><title>2025-09-14</title></rect><rect width="2.6" height="2.6" x="139.5" y="45.5" fill="#444"><title>2025-09-15</title></rect><rect width="2.6" height="2.6" x="139.5" y="49" fill="#444"><title>2025-09-16</title></rect><rect width="2.6" height="2.6" x="139.5" y="52.5" fill="#444"><title>2025-09-17</title></rect><rect width="2.6" height="2.6" x="139.5" y="56" fill="#444"><title>2025-09-18</title></rect><rect width="2.6" height="2.6" x="139.5" y="59.5" fill="#444"><title>2025-09-19</title></rect><rect width="2.6" height="2.6" x="139.5" y="63" fill="#444"><title>2025-09-20</title></rect><rect width="2.6" height="2.6" x="139.5" y="66.5" fill="#444"><title>2025-09-21</title></rect><rect width="2.6" height="2.6" x="143" y="45.5" fill="#444"><title>2025-09-22</title></rect><rect width="2.6" height="2.6" x="143" y="49" fill="#444"><title>2025-09-23</title></rect><rect width="2.6" height="2.6" x="143" y="52.5" fill="#444"><title>2025-09-24</title></rect><rect width="2.6" height="2.6" x="143" y="56" fill="#444"><title>2025-09-25</title></rect><rect width="2.6" height="2.6" x="143" y="59.5" fill="#444"><title>2025-09-26</title></rect><rect width="2.6" height="2.6" x="143" y="63" fill="#444"><title>2025-09-27</title></rect><rect width="2.6" height="2.6" x="143" y="66.5" fill="#444"><title>2025-09-28</title></rect><rect width="2.6" height="2.6" x="146.5" y="45.5" fill="#444"><title>2025-09-29</title></rect><rect width="2.6" height="2.6" x="146.5" y="49" fill="#444"><title>2025-09-30</title></rect><rect width="2.6" height="2.6" x="146.5" y="52.5" fill="#444"><title>2025-10-01</title></rect><rect width="2.6" height="2.6" x="146.5" y="56" fill="#444"><title>2025-10-02</title></rect><rect width="2.6" height="2.6" x="146.5" y="59.5" fill="#444"><title>2025-10-03</title></rect><rect width="2.6" height="2.6" x="146.5" y="63" fill="#444"><title>2025-10-04</title></rect><rect width="2.6" height="2.6" x="146.5" y="66.5" fill="#444"><title>2025-10-05</title></rect><rect width="2.6" height="2.6" x="150" y="45.5" fill="#444"><title>2025-10-06</title></rect><rect width="2.6" height="2.6" x="150" y="49" fill="#444"><title>2025-10-07</title></rect><rect width="2.6" height="2.6" x="150" y="52.5" fill="#444"><title>2025-10-08</title></rect><rect width="2.6" height="2.6" x="150" y="56" fill="#444"><title>2025-10-09</title></rect><rect width="2.6" height="2.6" x="150" y="59.5" fill="#444"><title>2025-10-10</title></rect><rect width="2.6" height="2.6" x="150" y="63" fill="#444"><title>2025-10-11</title></rect><rect width="2.6" height="2.6" x="150" y="66.5" fill="#444"><title>2025-10-12</title></rect><rect width="2.6" height="2.6" x="153.5" y="45.5" fill="#444"><title>2025-10-13</title></rect><rect width="2.6" height="2.6" x="153.5" y="49" fill="#444"><title>2025-10-14</title></rect><rect width="2.6" height="2.6" x="153.5" y="52.5" fill="#444"><title>2025-10-15</title></rect><rect width="2.6" height="2.6" x="153.5" y="56" fill="#444"><title>2025-10-16</title></rect><rect width="2.6" height="2.6" x="153.5" y="59.5" fill="#444"><title>2025-10-17</title></rect><rect width="2.6" height="2.6" x="153.5" y="63" fill="#444"><title>2025-10-18</title></rect><rect width="2.6" height="2.6" x="153.5" y="66.5" fill="#444"><title>2025-10-19</title></rect><rect width="2.6" height="2.6" x="157" y="45.5" fill="#444"><title>2025-10-20</title></rect><rect width="2.6" height="2.6" x="157" y="49" fill="#444"><title>2025-10-21</title></rect><rect width="2.6" height="2.6" x="157" y="52.5" fill="#444"><title>2025-10-22</title></rect><rect width="2.6" height="2.6" x="157" y="56" fill="#444"><title>2025-10-23</title></rect><rect width="2.6" height="2.6" x="157" y="59.5" fill="#444"><title>2025-10-24</title></rect><rect width="2.6" height="2.6" x="157" y="63" fill="#444"><title>2025-10-25</title></rect><rect width="2.6" height="2.6" x="157" y="66.5" fill="#444"><title>2025-10-26</title></rect><rect width="2.6" height="2.6" x="160.5" y="45.5" fill="#444"><title>2025-10-27</title></rect><rect width="2.6" height="2.6" x="160.5" y="49" fill="#444"><title>2025-10-28</title></rect><rect width="2.6" height="2.6" x="160.5" y="52.5" fill="#444"><title>2025-10-29</title></rect><rect width="2.6" height="2.6" x="160.5" y="56" fill="#444"><title>2025-10-30</title></rect><rect width="2.6" height="2.6" x="160.5" y="59.5" fill="#444"><title>2025-10-31</title></rect><rect width="2.6" height="2.6" x="160.5" y="63" fill="#444"><title>2025-11-01</title></rect><rect width="2.6" height="2.6" x="160.5" y="66.5" fill="#444"><title>2025-11-02</title></rect><rect width="2.6" height="2.6" x="164" y="45.5" fill="#444"><title>2025-11-03</title></rect><rect width="2.6" height="2.6" x="164" y="49" fill="#444"><title>2025-11-04</title></rect><rect width="2.6" height="2.6" x="164" y="52.5" fill="#444"><title>2025-11-05</title></rect><rect width="2.6" height="2.6" x="164" y="56" fill="#444"><title>2025-11-06</title></rect><rect width="2.6" height="2.6" x="164" y="59.5" fill="#444"><title>2025-11-07</title></rect><rect width="2.6" height="2.6" x="164" y="63" fill="#444"><title>2025-11-08</title></rect><rect width="2.6" height="2.6" x="164" y="66.5" fill="#444"><title>2025-11-09</title></rect><rect width="2.6" height="2.6" x="167.5" y="45.5" fill="#444"><title>2025-11-10</title></rect><rect width="2.6" height="2.6" x="167.5" y="49" fill="#444"><title>2025-11-11</title></rect><rect width="2.6" height="2.6" x="167.5" y="52.5" fill="#444"><title>2025-11-12</title></rect><rect width="2.6" height="2.6" x="167.5" y="56" fill="#444"><title>2025-11-13</title></rect><rect width="2.6" height="2.6" x="167.5" y="59.5" fill="#444"><title>2025-11-14</title></rect><rect width="2.6" height="2.6" x="167.5" y="63" fill="#444"><title>2025-11-15</title></rect><rect width="2.6" height="2.6" x="167.5" y="66.5" fill="#444"><title>2025-11-16</title></rect><rect width="2.6" height="2.6" x="171" y="45.5" fill="#444"><title>2025-11-17</title></rect><rect width="2.6" height="2.6" x="171" y="49" fill="#444"><title>2025-11-18</title></rect><rect width="2.6" height="2.6" x="171" y="52.5" fill="#444"><title>2025-11-19</title></rect><rect width="2.6" height="2.6" x="171" y="56" fill="#444"><title>2025-11-20</title></rect><rect width="2.6" height="2.6" x="171" y="59.5" fill="#444"><title>2025-11-21</title></rect><rect width="2.6" height="2.6" x="171" y="63" fill="#444"><title>2025-11-22</title></rect><rect width="2.6" height="2.6" x="171" y="66.5" fill="#444"><title>2025-11-23</title></rect><rect width="2.6" height="2.6" x="174.5" y="45.5" fill="#444"><title>2025-11-24</title></rect><rect width="2.6" height="2.6" x="174.5" y="49" fill="#444"><title>2025-11-25</title></rect><rect width="2.6" height="2.6" x="174.5" y="52.5" fill="#444"><title>2025-11-26</title></rect><rect width="2.6" height="2.6" x="174.5" y="56" fill="#444"><title>2025-11-27</title></rect><rect width="2.6" height="2.6" x="174.5" y="59.5" fill="#444"><title>2025-11-28</title></rect><rect width="2.6" height="2.6" x="174.5" y="63" fill="#444"><title>2025-11-29</title></rect><rect width="2.6" height="2.6" x="174.5" y="66.5" fill="#444"><title>2025-11-30</title></rect><rect width="2.6" height="2.6" x="178" y="45.5" fill="#444"><title>2025-12-01</title></rect><rect width="2.6" height="2.6" x="178" y="49" fill="#444"><title>2025-12-02</title></rect><rect width="2.6" height="2.6" x="178" y="52.5" fill="#444"><title>2025-12-03</title></rect><rect width="2.6" height="2.6" x="178" y="56" fill="#444"><title>2025-12-04</title></rect><rect width="2.6" height="2.6" x="178" y="59.5" fill="#444"><title>2025-12-05</title></rect><rect width="2.6" height="2.6" x="178" y="63" fill="#444"><title>2025-12-06</title></rect><rect width="2.6" height="2.6" x="178" y="66.5" fill="#444"><title>2025-12-07</title></rect><rect width="2.6" height="2.6" x="181.5" y="45.5" fill="#444"><title>2025-12-08</title></rect><rect width="2.6" height="2.6" x="181.5" y="49" fill="#444"><title>2025-12-09</title></rect><rect width="2.6" height="2.6" x="181.5" y="52.5" fill="#444"><title>2025-12-10</title></rect><rect width="2.6" height="2.6" x="181.5" y="56" fill="#444"><title>2025-12-11</title></rect><rect width="2.6" height="2.6" x="181.5" y="59.5" fill="#444"><title>2025-12-12</title></rect><rect width="2.6" height="2.6" x="181.5" y="63" fill="#444"><title>2025-12-13</title></rect><rect width="2.6" height="2.6" x="181.5" y="66.5" fill="#444"><title>2025-12-14</title></rect><rect width="2.6" height="2.6" x="185" y="45.5" fill="#444"><title>2025-12-15</title></rect><rect width="2.6" height="2.6" x="185" y="49" fill="#444"><title>2025-12-16</title></rect><rect width="2.6" height="2.6" x="185" y="52.5" fill="#444"><title>2025-12-17</title></rect><rect width="2.6" height="2.6" x="185" y="56" fill="#444"><title>2025-12-18</title></rect><rect width="2.6" height="2.6" x="185" y="59.5" fill="#444"><title>2025-12-19</title></rect><rect width="2.6" height="2.6" x="185" y="63" fill="#444"><title>2025-12-20</title></rect><rect width="2.6" height="2.6" x="185" y="66.5" fill="#444"><title>2025-12-21</title></rect><rect width="2.6" height="2.6" x="188.5" y="45.5" fill="#444"><title>2025-12-22</title></rect><rect width="2.6" height="2.6" x="188.5" y="49" fill="#444"><title>2025-12-23</title></rect><rect width="2.6" height="2.6" x="188.5" y="52.5" fill="#444"><title>2025-12-24</title></rect><rect width="2.6" height="2.6" x="188.5" y="56" fill="#444"><title>2025-12-25</title></rect><rect width="2.6" height="2.6" x="188.5" y="59.5" fill="#444"><title>2025-12-26</title></rect><rect width="2.6" height="2.6" x="188.5" y="63" fill="#444"><title>2025-12-27</title></rect><rect width="2.6" height="2.6" x="188.5" y="66.5" fill="#444"><title>2025-12-28</title></rect><rect width="2.6" height="2.6" x="192" y="45.5" fill="#444"><title>2025-12-29</title></rect><rect width="2.6" height="2.6" x="192" y="49" fill="#444"><title>2025-12-30</title></rect><rect width="2.6" height="2.6" x="192" y="52.5" fill="#444"><title>2025-12-31</title></rect></svg>