<?xml version="1.0" encoding="utf-8" ?>
<svg baseProfile="full" height="200mm" version="1.1" viewBox="0,0,200,200" width="200mm" xmlns="http://www.w3.org/2000/svg" xmlns:ev="http://www.w3.org/2001/xml-events" xmlns:xlink="http://www.w3.org/1999/xlink"><defs /><rect fill="#1a1a1a" height="200" width="200" x="0" y="0" /><text alignment-baseline="middle" fill="#e1ed5e" style="dominant-baseline: central; font-size:9.0px; font-family:Arial;" text-anchor="middle" x="100.0" y="100.0">2023</text><line stroke="#e1ed5e" stroke-width="0.3" x1="100.0" x2="100.0" y1="15.0" y2="10.0" /><path d="M 100.0 14.0 a86.0,86.0 0 0,1 42.46469731375804,11.215312516191453" fill="none" id="id1" stroke="none" /><text fill="#e1ed5e" style="font-size:6.75px; font-family:Arial;" text-anchor="middle"><textPath startOffset="22.20632615414155" xlink:href="#id1">January</textPath></text><line stroke="#e1ed5e" stroke-width="0.3" x1="143.23703022742887" x2="145.7803849466894" y1="26.81831364943548" y2="22.513508569990506" /><path d="M 143.74570117128098 25.957352633546492 a86.0,86.0 0 0,1 28.547481713284135,27.462654790039103" fill="none" id="id2" stroke="none" /><text fill="#e1ed5e" style="font-size:6.75px; font-family:Arial;" text-anchor="middle"><textPath startOffset="19.985693538727396" xlink:href="#id2">February</textPath></text><line stroke="#e1ed5e" stroke-width="0.3" x1="172.23445277983987" x2="176.4835382374775" y1="55.19839476539836" y2="52.563006222186495" /><path d="M 173.08426987136738 54.67131705675599 a86.0,86.0 0 0,1 12.851231095245387,41.99856678651699" fill="none" id="id3" stroke="none" /><text fill="#e1ed5e" style="font-size:6.75px; font-family:Arial;" text-anchor="middle"><textPath startOffset="22.20632615414155" xlink:href="#id3">March</textPath></text><line stroke="#e1ed5e" stroke-width="0.3" x1="184.98032266829074" x2="189.97916517819016" y1="98.17113171792111" y2="98.06355123074" /><path d="M 185.9800911702706 98.14961562048488 a86.0,86.0 0 0,1 -9.607161424134198,41.387399972396054" fill="none" id="id4" stroke="none" /><text fill="#e1ed5e" style="font-size:6.75px; font-family:Arial;" text-anchor="middle"><textPath startOffset="21.466115282336823" xlink:href="#id4">April</textPath></text><line stroke="#e1ed5e" stroke-width="0.3" x1="174.80103733775053" x2="179.2010983576182" y1="140.37084112569926" y2="142.7455964860345" /><path d="M 175.68104954172406 140.8457921977663 a86.0,86.0 0 0,1 -30.038265399797805,32.042727171017184" fill="none" id="id5" stroke="none" /><text fill="#e1ed5e" style="font-size:6.75px; font-family:Arial;" text-anchor="middle"><textPath startOffset="22.206326154141568" xlink:href="#id5">May</textPath></text><line stroke="#e1ed5e" stroke-width="0.3" x1="143.8653032363475" x2="146.44561519142675" y1="172.8068346515853" y2="177.08958963109032" /><path d="M 144.38136562736335 173.6633856474863 a86.0,86.0 0 0,1 -40.68145358897372,12.25698825130547" fill="none" id="id6" stroke="none" /><text fill="#e1ed5e" style="font-size:6.75px; font-family:Arial;" text-anchor="middle"><textPath startOffset="21.466115282336833" xlink:href="#id6">June</textPath></text><line stroke="#e1ed5e" stroke-width="0.3" x1="102.19456741930631" x2="102.32365962044197" y1="184.97166512339345" y2="189.96999836594603" /><path d="M 102.22038585953345 185.97133177190398 a86.0,86.0 0 0,1 -42.740103519485714,-10.115201625700543" fill="none" id="id7" stroke="none" /><text fill="#e1ed5e" style="font-size:6.75px; font-family:Arial;" text-anchor="middle"><textPath startOffset="22.20632615414155" xlink:href="#id7">July</textPath></text><line stroke="#e1ed5e" stroke-width="0.3" x1="58.666819895761336" x2="56.23545636021788" y1="174.27360380694188" y2="178.64263932499728" /><path d="M 58.180547188652646 175.14741091055294 a86.0,86.0 0 0,1 -31.652253787137756,-30.449443065178592" fill="none" id="id8" stroke="none" /><text fill="#e1ed5e" style="font-size:6.75px; font-family:Arial;" text-anchor="middle"><textPath startOffset="22.20632615414155" xlink:href="#id8">August</textPath></text><line stroke="#e1ed5e" stroke-width="0.3" x1="26.63291911575756" x2="22.317208475507996" y1="142.92168965132927" y2="145.44649492493687" /><path d="M 25.769776987707644 143.4266507060508 a86.0,86.0 0 0,1 -11.730757126820373,-40.83630448921669" fill="none" id="id9" stroke="none" /><text fill="#e1ed5e" style="font-size:6.75px; font-family:Arial;" text-anchor="middle"><textPath startOffset="21.46611528233685" xlink:href="#id9">September</textPath></text><line stroke="#e1ed5e" stroke-width="0.3" x1="15.007084014347285" x2="10.007500721073583" y1="101.09737516637583" y2="101.16192664675087" /><path d="M 14.007167355692545 101.11028546245083 a86.0,86.0 0 0,1 10.666146001902534,-42.60595125391555" fill="none" id="id10" stroke="none" /><text fill="#e1ed5e" style="font-size:6.75px; font-family:Arial;" text-anchor="middle"><textPath startOffset="22.20632615414155" xlink:href="#id10">October</textPath></text><path d="M 79.71946130924805 94.55025226153421 l -17.545370028823083 -4.714758423982412 a39.16779998912462,39.16779998912462 0 0,0 0.18056958127419115,-0.6496048574361795 l 17.46161367698253 5.016074584837534" fill="#ff2d04" stroke="none" /><path d="M 79.91906864156998 93.8553929516997 l -17.313420597679283 -5.297770523478608 a39.105825176212875,39.105825176212875 0 0,0 0.20250209717297446,-0.6419869867265294 l 17.219663016738103 5.5950076766315515" fill="#ff2b04" stroke="none" /><path d="M 80.14247586403 93.16781622104843 l -33.49851377085226 -11.525505437489569 a56.425805572288404,56.425805572288404 0 0,0 0.32390271545543087,-0.9157165938012592 l 33.29515797458702 12.10041965771744" fill="#b1ff20" stroke="none" /><path d="M 80.2630227832202 92.82701384747504 l -17.13296007713128 -6.226611300971877 a39.229344730350704,39.229344730350704 0 0,0 0.23611472238115164,-0.6326700671271291 l 17.023240766248502 6.520604505128348" fill="#ff2e04" stroke="none" /><path d="M 80.38941819471856 92.48833698450439 l -16.966363496649844 -6.4988181610663105 a39.16843768162408,39.16843768162408 0 0,0 0.246586671550844,-0.6275361826028905 l 16.85198327521731 6.789903348564964" fill="#ff2d04" stroke="none" /><path d="M 80.65960295795068 91.81776055985345 l -16.755445719969174 -7.088637762145933 a39.193233538812024,39.193233538812024 0 0,0 0.2682110367063197,-0.6190680519638636 l 16.630943973420173 7.376004958696396" fill="#ff2d04" stroke="none" /><path d="M 81.26839172434947 90.50648371742162 l -56.19482482695157 -28.480548847735136 a84.0,84.0 0 0,0 0.6647622673595439,-1.284109110958658 l 55.69625312643191 29.44363068095413" fill="#4dd2ff" stroke="none" /><path d="M 81.6062741919709 89.86733742301443 l -15.901711435005998 -8.759871602368609 a39.15488300849621,39.15488300849621 0 0,0 0.3302851586211404,-0.5875404429786414 l 15.748568635092427 9.032295555282035" fill="#ff2c04" stroke="none" /><line stroke="#e1ed5e" stroke-width="0.3" x1="26.266209847984243" x2="21.928928074336255" y1="57.711370442889674" y2="55.22380399835377" /><path d="M 25.398753493254645 57.213857153982495 a86.0,86.0 0 0,1 29.58750427330803,-30.492523968695096" fill="none" id="id11" stroke="none" /><text fill="#e1ed5e" style="font-size:6.75px; font-family:Arial;" text-anchor="middle"><textPath startOffset="21.46611528233685" xlink:href="#id11">November</textPath></text><path d="M 81.96595687620814 89.24020034530311 l -15.61336474137799 -9.315530377727761 a39.18120636167122,39.18120636167122 0 0,0 0.3505490323545522,-0.5762104385289555 l 15.450699910737223 9.582908589463791" fill="#ff2d04" stroke="none" /><path d="M 82.34701348167596 88.62581576622439 l -27.05317818429999 -17.430922096835122 a53.1824718599647,53.1824718599647 0 0,0 0.5024562550952248,-0.7652753480522562 l 26.749125293846845 17.894015508865042" fill="#e2ff1b" stroke="none" /><path d="M 82.54541684631803 88.32363383020206 l -15.128362175390446 -10.120224284583813 a39.20127143031674,39.20127143031674 0 0,0 0.3800199894234034,-0.5576324424751044 l 14.951917720298303 10.379134750329332" fill="#ff2d04" stroke="none" /><path d="M 82.95767976084542 87.72973835380427 l -14.777024169491172 -10.639276246859772 a39.20864196920574,39.20864196920574 0 0,0 0.3990644143517307,-0.5443234126981563 l 14.591697142625808 10.89206210322943" fill="#ff2d04" stroke="none" /><path d="M 83.39014120810768 87.1503855733568 l -14.373988670987416 -11.119914654860436 a39.173168470166516,39.173168470166516 0 0,0 0.4171866323122693,-0.5297846570707593 l 14.180447958081174 11.365691705884242" fill="#ff2d04" stroke="none" /><path d="M 83.84228863543731 86.58626213691792 l -24.775409216625903 -20.567940420775187 a53.20032724994933,53.20032724994933 0 0,0 0.5910034145916623,-0.6995616308036084 l 24.417695188547118 20.991361001207913" fill="#e1ff1b" stroke="none" /><path d="M 84.07557802195018 86.31012108654704 l -13.803535562206292 -11.866599031639582 a39.20312518758258,39.20312518758258 0 0,0 0.4443172746581444,-0.507931452941419 l 13.597226423970305 12.102446040783946" fill="#ff2d04" stroke="none" /><path d="M 84.5562425177563 85.77008943001954 l -13.376832546516201 -12.32544159446843 a39.189451873989704,39.189451873989704 0 0,0 0.46137681606268616,-0.4921646188074712 l 13.162688408483058 12.553875630153952" fill="#ff2d04" stroke="none" /><path d="M 85.05521093208273 85.24692304244772 l -12.938849785718384 -12.772869912276025 a39.181310172078106,39.181310172078106 0 0,0 0.47794518898222377,-0.4758927404502533 l 12.717068796568846 12.99369850337639" fill="#ff2d04" stroke="none" /><path d="M 85.57189188830299 84.74124197986013 l -22.111830713954586 -23.38484516712185 a53.18359894438233,53.18359894438233 0 0,0 0.6705998910423169,-0.6232495141075101 l 21.70602293911741 23.761999267304006" fill="#e2ff1b" stroke="none" /><path d="M 85.83668400450813 84.49514656593479 l -32.597942336770444 -35.68559215543947 a69.33308734268662,69.33308734268662 0 0,0 0.888087556725311,-0.7973337770640472 l 31.978843792449158 36.2414249412728" fill="#35ff66" stroke="none" /><path d="M 86.37877921826538 84.01681056812374 l -11.79433002199934 -13.839509246958588 a39.18346053050649,39.18346053050649 0 0,0 0.5171143219947644,-0.4330683732588472 l 11.554358163045466 14.040478777611249" fill="#ff2d04" stroke="none" /><path d="M 86.65592168130627 83.78471172551755 l -11.555668029261605 -14.042070484268573 a39.18552190858611,39.18552190858611 0 0,0 0.524519858760946,-0.4241252478735384 l 11.31224477193616 14.238901829406245" fill="#ff2d04" stroke="none" /><path d="M 87.51073957382395 83.11751280151077 l -10.806736481310034 -14.608118021206487 a39.17092913138937,39.17092913138937 0 0,0 0.5455105565356626,-0.3963366187990328 l 10.55368060842059 14.791973874822187" fill="#ff2d04" stroke="none" /><path d="M 87.80319425747018 82.90503203632743 l -18.728418935249245 -26.249636869424926 a53.24588518851475,53.24588518851475 0 0,0 0.7506880261725154,-0.5259049356451831 l 18.27379976949307 26.56812664783405" fill="#e1ff1b" stroke="none" /><path d="M 88.09926311788651 82.69761687909137 l -10.312314092035717 -14.992988337698588 a39.19707452386686,39.19707452386686 0 0,0 0.5592028343022636,-0.3775762499485584 l 10.052706563326913 15.168276499945812" fill="#ff2d04" stroke="none" /><path d="M 88.39885842347998 82.49532879139004 l -10.062242805372577 -15.182665496103994 a39.214336711526414,39.214336711526414 0 0,0 0.5658684326471555,-0.36805656924819513 l 9.799407346941136 15.353620989511723" fill="#ff2d04" stroke="none" /><line stroke="#e1ed5e" stroke-width="0.3" x1="56.762969772571076" x2="54.21961505331055" y1="26.818313649435495" y2="22.513508569990535" /><path d="M 56.25429882871897 25.957352633546506 a86.0,86.0 0 0,1 42.265352541879196,-11.944610805530505" fill="none" id="id12" stroke="none" /><text fill="#e1ed5e" style="font-size:6.75px; font-family:Arial;" text-anchor="middle"><textPath startOffset="22.20632615414155" xlink:href="#id12">December</textPath></text><path d="M 90.26544431104013 81.39251694778311 l -7.384563689860195 -14.115502350346276 a36.93044843977196,36.93044843977196 0 0,0 0.5658087844828824,-0.2898292355445499 l 7.140494417788548 14.24052411120333" fill="#ff0200" stroke="none" /><path d="M 90.58718382345135 81.22770947309562 l -7.108986371297839 -14.177686572302653 a36.86015396425108,36.86015396425108 0 0,0 0.5696275744675727,-0.2795137769258423 l 6.8638875298198405 14.297955509363325" fill="#ff0100" stroke="none" /><path d="M 90.91171255644093 81.06846463323043 l -6.895406756026475 -14.363612251557036 a36.932984379711634,36.932984379711634 0 0,0 0.5754893909891838,-0.27019998553968216 l 6.647139153737682 14.480177219736726" fill="#ff0200" stroke="none" /><path d="M 91.56875222667455 80.76684994638697 l -6.3489654803225575 -14.483100135496342 a36.813587581733046,36.813587581733046 0 0,0 0.5825596708294714,-0.2494216485005853 l 6.098722051702778 14.590241311959712" fill="#ff0000" stroke="none" /><path d="M 92.91201910852362 80.23233633223022 l -6.151755122949761 -17.15662444620684 a39.2261859279697,39.2261859279697 0 0,0 0.6375525318655038,-0.22242955969575723 l 5.855520587020973 17.259974859074806" fill="#ff2e04" stroke="none" /><path d="M 93.25333710446033 80.11325718540243 l -5.839535864795351 -17.21285763018912 a39.1764310829544,39.1764310829544 0 0,0 0.6404734168578409,-0.2111540157663999 l 5.542379625695101 17.31082537021475" fill="#ff2d04" stroke="none" /><path d="M 93.59665428221793 80.00007090966166 l -5.549167146923191 -17.332025216239618 a39.19869100020267,39.19869100020267 0 0,0 0.644379119231537,-0.2002117290220624 l 5.250002654980925 17.424977080144206" fill="#ff2d04" stroke="none" /><path d="M 94.28887869178378 79.79150937346287 l -4.982914955863239 -17.631772246463623 a39.322358854921774,39.322358854921774 0 0,0 0.6529423587339747,-0.1784738116824917 l 4.678674707905542 17.714932598972407" fill="#ff2f04" stroke="none" /><path d="M 94.63758080256005 79.69619591428918 l -8.239815049085982 -31.19852892869757 a53.2682934063443,53.2682934063443 0 0,0 0.8885433188172316,-0.22650947620878317 l 7.701562841583751 31.335741401075218" fill="#e0ff1b" stroke="none" /><path d="M 95.33964822691252 79.52364482259891 l -4.043696691480921 -17.766935569670505 a39.22129200878787,39.22129200878787 0 0,0 0.6595849829048953,-0.14415973001518162 l 3.7372689844225047 17.833908797781554" fill="#ff2e04" stroke="none" /><path d="M 95.692805502759 79.44645832069477 l -3.7450892250878 -17.871226277305475 a39.259420088231785,39.259420088231785 0 0,0 0.662612248767144,-0.13291378357029357 l 3.4369105668535194 17.93304401695298" fill="#ff2e04" stroke="none" /><path d="M 96.04723909329186 79.375362276772 l -3.4188417501939106 -17.838764902559944 a39.16342512197723,39.16342512197723 0 0,0 0.6631764308426961,-0.12119125381943693 l 3.1112701982483215 17.894971637730116" fill="#ff2d04" stroke="none" /><path d="M 96.75951476605007 79.25152402106235 l -2.811516142926826 -18.00183335037354 a39.22006111396335,39.22006111396335 0 0,0 0.6679195449446389,-0.09843397867856003 l 2.5012276175535386 18.047561813213072" fill="#ff2e04" stroke="none" /><path d="M 97.11714578562143 79.19881850522333 l -4.430956921498163 -31.971488068982467 a53.27707280075535,53.27707280075535 0 0,0 0.9094783765374004,-0.11807639547873894 l 3.879963816452905 32.04302278762534" fill="#e0ff1b" stroke="none" /><path d="M 97.83486435360386 79.11191278185805 l -1.8813723502196005 -18.150488541722293 a39.24773400242789,39.24773400242789 0 0,0 0.672584442196188,-0.06386999707361937 l 1.5686627809331763 18.18018408331109" fill="#ff2e04" stroke="none" /><path d="M 98.19473922651362 79.07773832637324 l -1.568783892914579 -18.18158772349645 a39.249142857949934,39.249142857949934 0 0,0 0.6736083878630681,-0.05228497527517815 l 1.2555853156891765 18.20589796096009" fill="#ff2e04" stroke="none" /><path d="M 98.55514903715128 79.0497635885617 l -1.254103776217525 -18.184415743775016 a39.22760961354987,39.22760961354987 0 0,0 0.6740385848510688,-0.04065984815774488 l 0.9409031425268332 18.20330886131307" fill="#ff2e04" stroke="none" /><path d="M 99.27714615592234 79.0124445844662 l -0.6263190321080829 -18.184734717630725 a39.19551736776355,39.19551736776355 0 0,0 0.6744864760222035,-0.017419995746718566 l 0.31320592089100047 18.192821505519802" fill="#ff2d04" stroke="none" /><path d="M 99.63851952072746 79.00311137660856 l -0.5552888880499741 -32.254408203884054 a53.25918775065446,53.25918775065446 0 0,0 0.9167693673225019,-0.007890923378963396 l 7.901222204386498e-15 32.25918775065446" fill="#e0ff1b" stroke="none" /></svg>