<?xml version="1.0" encoding="utf-8" ?>
<svg baseProfile="full" height="200mm" version="1.1" viewBox="0,0,200,200" width="200mm" xmlns="http://www.w3.org/2000/svg" xmlns:ev="http://www.w3.org/2001/xml-events" xmlns:xlink="http://www.w3.org/1999/xlink"><defs /><rect fill="#1a1a1a" height="200" width="200" x="0" y="0" /><text alignment-baseline="middle" fill="#e1ed5e" style="dominant-baseline: central; font-size:9.0px; font-family:Arial;" text-anchor="middle" x="100.0" y="100.0">2024</text><line stroke="#e1ed5e" stroke-width="0.3" x1="100.0" x2="100.0" y1="15.0" y2="10.0" /><path d="M 100.0 14.0 a86.0,86.0 0 0,1 42.35913384403234,11.155469271406648" fill="none" id="id13" stroke="none" /><text fill="#e1ed5e" style="font-size:6.75px; font-family:Arial;" text-anchor="middle"><textPath startOffset="22.145653131862478" xlink:href="#id13">January</textPath></text><path d="M 100.0 79.0 l 0.0 -18.22319118173251 a39.22319118173251,39.22319118173251 0 0,0 0.6733182338575505,0.00577962723679659 l -0.31282530900869576 18.220505952690147" fill="#ffdd14" stroke="none" /><path d="M 100.72087961077811 79.0123766808444 l 0.6265356365956709 -18.240901449139084 a39.25165835153422,39.25165835153422 0 0,0 0.67321124723427,0.028910587605953223 l -0.9395726444307773 18.2274582931073" fill="#ffdd14" stroke="none" /><path d="M 101.08105385017728 79.02784411241856 l 0.9398975365239556 -18.23376111291934 a39.257969539414105,39.257969539414105 0 0,0 0.6727239077414248,0.04046939976889584 l -1.2527657963978427 18.214939735325753" fill="#ffdd14" stroke="none" /><path d="M 101.80034050326958 79.07731436759882 l 1.5775896001650591 -18.33398248900948 a39.40173097439084,39.40173097439084 0 0,0 0.6733951642902444,0.06377122218459867 l -1.8920843278403163 18.304199511319695" fill="#ffdf14" stroke="none" /><path d="M 102.15924093988457 79.11130261209362 l 3.3261941809358566 -32.177911420435805 a53.34936708980107,53.34936708980107 0 0,0 0.9101506143140815,0.10198427472640482 l -3.8780806968507346 32.11607138520243" fill="#7aff26" stroke="none" /><path d="M 102.87502721639298 79.19773525538626 l 2.4968271462028993 -18.065797436872543 a39.23752129068329,39.23752129068329 0 0,0 0.6664304172652757,0.0979423215461842 l -2.806582669075857 18.020274042027477" fill="#ffdd14" stroke="none" /><path d="M 103.23170211078529 79.25015418208739 l 2.8071082771671056 -18.023648823019098 a39.24093675706535,39.24093675706535 0 0,0 0.6647087621790396,0.1093775738652117 l -3.1160945423992157 17.972805250658215" fill="#ffdd14" stroke="none" /><path d="M 103.58742460773223 79.30868818359171 l 3.114321321493635 -17.962577783689945 a39.230556709234676,39.230556709234676 0 0,0 0.6625578975343436,0.12074011989556857 l -3.4222139525790323 17.90646948986301" fill="#ffdd14" stroke="none" /><path d="M 104.29559338865022 79.4440306129975 l 6.614958014770943 -31.654968742436253 a53.338749444309045,53.338749444309045 0 0,0 0.8946624859438533,0.19498752475288209 l -7.157382917333931 31.53674975954965" fill="#7bff26" stroke="none" /><path d="M 104.64783097203109 79.52079915486377 l 8.931384108242822 -39.35332633188097 a61.35410655029409,61.35410655029409 0 0,0 1.0251039630721572,0.24192174407164788 l -9.605620225054865 39.194208444163095" fill="#30ff39" stroke="none" /><path d="M 105.3480935250658 79.69241777938227 l 4.646797474750496 -17.644646889359223 a39.24626785459212,39.24626785459212 0 0,0 0.6500277097012396,0.17716794282390358 l -4.949006585386429 17.56227845239118" fill="#ffdd14" stroke="none" /><path d="M 105.69591212413111 79.78721728523813 l 4.941236990188175 -17.534706900003876 a39.21762248654438,39.21762248654438 0 0,0 0.6464184458054943,0.18816298857060906 l -5.2415154483752735 17.44730021713075" fill="#ffdd14" stroke="none" /><path d="M 106.04205211174951 79.88797359093562 l 5.232598632478184 -17.41761903704654 a39.18663084159071,39.18663084159071 0 0,0 0.6425849236430112,0.19907445193058065 l -5.530824188992826 17.32522799730931" fill="#ffdc14" stroke="none" /><path d="M 106.72888874123014 80.10723608172694 l 5.845891269158131 -17.28233879046078 a39.244277974178225,39.244277974178225 0 0,0 0.6363071490699289,0.22134065695121954 l -6.141704190273079 17.17943970094097" fill="#ffdd14" stroke="none" /><path d="M 109.3889696526874 81.21577127319529 l 15.892690787729077 -31.796027666958825 a56.54665941930943,56.54665941930943 0 0,0 0.8645520496463669,0.4414464367266775 l -16.436170059089022 31.51852327855931" fill="#59ff2a" stroke="none" /><path d="M 110.34350942703115 81.72400993836675 l 8.989299745058272 -15.8832313114527 a39.25060401191194,39.25060401191194 0 0,0 0.5835397244546577,0.3369068169967367 l -9.260631937373327 15.726577597179793" fill="#ffdd14" stroke="none" /><line stroke="#e1ed5e" stroke-width="0.3" x1="143.13028292997686" x2="145.6673583964461" y1="26.7553504044142" y2="22.446841604673864" /><path d="M 143.63769802327073 25.89364864446614 a86.0,86.0 0 0,1 29.32050498858742,28.57503671076993" fill="none" id="id14" stroke="none" /><text fill="#e1ed5e" style="font-size:6.75px; font-family:Arial;" text-anchor="middle"><textPath startOffset="20.669276256404974" xlink:href="#id14">February</textPath></text><path d="M 110.65571695917076 81.90426304109057 l 9.255530715314253 -15.717914606889817 a39.24055066086564,39.24055066086564 0 0,0 0.5775223249486712,0.3467855625675035 l -9.523985796820357 15.556715043786394" fill="#ffdd14" stroke="none" /><path d="M 110.96478420261332 82.08984904055464 l 9.52389275371022 -15.556563064858445 a39.24037246261962,39.24037246261962 0 0,0 0.5714815951772115,0.35664678198661237 l -9.789538477677144 15.390780486030287" fill="#ffdd14" stroke="none" /><path d="M 111.27062007382361 82.28071324371311 l 25.050234441753826 -39.38312927578481 a67.6748874357508,67.6748874357508 0 0,0 0.9748869421287787,0.6319099376379876 l -25.722607016139612 38.94730549644293" fill="#38ff83" stroke="none" /><path d="M 111.5731344415666 82.4767994020092 l 10.058216051796057 -15.229421072006042 a39.25110890694233,39.25110890694233 0 0,0 0.559054874779777,0.37615706957817474 l -10.318167214672837 15.054514328370749" fill="#ffdd14" stroke="none" /><path d="M 111.8722381534696 82.67804972795209 l 10.30009216439942 -15.028142289842412 a39.21913717163555,39.21913717163555 0 0,0 0.5520652127554808,0.3853843940484218 l -10.556552468328661 14.849113079988864" fill="#ffdd14" stroke="none" /><path d="M 112.16784306229584 82.88440491214696 l 10.58881866314338 -14.894499523802047 a39.27482412351684,39.27482412351684 0 0,0 0.5461425932518809,0.39536512019855313 l -10.84294226676923 14.710533632230419" fill="#ffdd14" stroke="none" /><path d="M 112.45986205192187 83.09580414077388 l 10.831329611640514 -14.694778835273326 a39.255252016162295,39.255252016162295 0 0,0 0.5390064089721434,0.4044804579168304 l -11.081989009523424 14.50667935009248" fill="#ffdd14" stroke="none" /><path d="M 114.65682725009322 84.96080404539774 l 1.5855307567994719 -1.6268942341122583 a23.27171578982601,23.27171578982601 0 0,0 0.28370225117307574,0.28127746017786587 l -1.6132249281025102 1.599436763705733" fill="#ff0000" stroke="none" /><path d="M 114.91283532996326 85.21462403516908 l 17.465430535220147 -17.316154248147544 a45.5945209696436,45.5945209696436 0 0,0 0.5462944414842102,0.5605462228763557 l -17.76011177785517 17.013785333203447" fill="#d3ff1c" stroke="none" /><path d="M 115.6541949942343 86.00192230759917 l 13.626941124058966 -12.185294781022339 a39.28045221812031,39.28045221812031 0 0,0 0.44515776336266133,0.5065078182231882 l -13.834109951380219 11.949574684987853" fill="#ffde14" stroke="none" /><path d="M 115.8921839302757 86.27271002978787 l 13.832469213054567 -11.948157454300098 a39.278284139460396,39.278284139460396 0 0,0 0.43637320123088,0.5140465338051728 l -14.03553697779256 11.708944138045373" fill="#ffde14" stroke="none" /><path d="M 116.1254893667686 86.54754324733833 l 14.000267769781402 -11.679521310329616 a39.232353541548704,39.232353541548704 0 0,0 0.4269847233655072,0.5208519357610352 l -14.198699312385537 11.437467092870085" fill="#ffdd14" stroke="none" /><path d="M 116.57777611688842 87.10902102172516 l 14.428630455466038 -11.219790312961491 a39.27755649662248,39.27755649662248 0 0,0 0.40932455112573013,0.5358189769181939 l -14.619106983946075 10.970450422802417" fill="#ffde14" stroke="none" /><path d="M 116.7966241395341 87.39550010848427 l 25.80826634134035 -19.367004202587136 a53.26681675233225,53.26681675233225 0 0,0 0.5425554536439193,0.7360806736598958 l -26.136923814568092 18.921117219658363" fill="#7bff26" stroke="none" /><path d="M 117.01052211995028 87.68569379921539 l 14.770307615874579 -10.692563660250075 a39.23438797152411,39.23438797152411 0 0,0 0.39026053646043385,0.5489503181975471 l -14.951683250864972 10.437436115343024" fill="#ffdd14" stroke="none" /><path d="M 117.21940702142032 87.97951657250589 l 14.983475990087582 -10.459629916468964 a39.27316093988732,39.27316093988732 0 0,0 0.3811558698691682,0.5561178051202956 l -15.160821596772076 10.20087737627862" fill="#ffdd14" stroke="none" /><path d="M 117.42321728460499 88.27688183743584 l 15.153860467726517 -10.19619361799145 a39.26477077247054,39.26477077247054 0 0,0 0.37147382685093944,0.56245872003636 l -15.326658733498181 9.934555019616031" fill="#ffdd14" stroke="none" /><path d="M 117.62189284568427 88.57770195909679 l 15.31361199006445 -9.926098278148569 a39.249222975505276,39.249222975505276 0 0,0 0.36162048872337704,0.5685274718398282 l -15.481750170413717 9.661757131630068" fill="#ffdd14" stroke="none" /><path d="M 117.81537515405839 88.88188828441811 l 15.458381082073982 -9.647173092135773 a39.22167649664134,39.22167649664134 0 0,0 0.3515607621159287,0.5742480840993865 l -15.621709808645313 9.380387891911832" fill="#ffdd14" stroke="none" /><line stroke="#e1ed5e" stroke-width="0.3" x1="172.87174338648825" x2="177.1583165268699" y1="56.24261187166439" y2="53.66864786411523" /><path d="M 173.72905801456457 55.72781907015455 a86.0,86.0 0 0,1 12.242430191666344,42.057860355516425" fill="none" id="id15" stroke="none" /><text fill="#e1ed5e" style="font-size:6.75px; font-family:Arial;" text-anchor="middle"><textPath startOffset="22.145653131862474" xlink:href="#id15">March</textPath></text><path d="M 118.00360718960297 89.18935116829356 l 15.525654436902402 -9.322709401075212 a39.109634349456186,39.109634349456186 0 0,0 0.34067525284416267,0.5785410580535599 l -15.683403399876333 9.054817174728095" fill="#ffdb14" stroke="none" /><path d="M 118.18653347947321 89.5 l 27.96496112151467 -16.145577831383918 a53.29115566276783,53.29115566276783 0 0,0 0.45060624691236795,0.7961780620374977 l -28.238000733448413 15.663142999247302" fill="#7bff26" stroke="none" /><path d="M 118.36410011445183 89.81374322990088 l 15.942820101289652 -8.843213562282498 a39.23118040309575,39.23118040309575 0 0,0 0.3216109593558297,0.5917279414174497 l -16.092276410260823 8.568230787390446" fill="#ffdd14" stroke="none" /><path d="M 118.53625476483649 90.13048839642627 l 16.06831562397983 -8.555473018292473 a39.20403487028535,39.20403487028535 0 0,0 0.3111902988810225,0.5967484300832842 l -16.212813991835798 8.27837834510469" fill="#ffdd14" stroke="none" /><path d="M 118.70294669586156 90.45014215332178 l 16.204138047444616 -8.273948346080001 a39.194293366169575,39.194293366169575 0 0,0 0.30082569554113586,0.6018529062267682 l -16.343783656197488 7.994563583689483" fill="#ffdc14" stroke="none" /><path d="M 118.8641267826498 90.77261029715802 l 16.38501605444312 -8.014732415853246 a39.2401942643736,39.2401942643736 0 0,0 0.29078991186757264,0.6076390757767108 l -16.5201852242706 7.732280838011431" fill="#ffdd14" stroke="none" /><path d="M 119.0197475246899 91.09779779509293 l 16.483010678505302 -7.714881273540416 a39.19914926837363,39.19914926837363 0 0,0 0.2800229216534186,0.6119006199040037 l -16.613018065013772 7.430791671421728" fill="#ffdd14" stroke="none" /><path d="M 119.16976305983485 91.42560881287824 l 16.605508247326263 -7.42743262549113 a39.19092244934903,39.19092244934903 0 0,0 0.2694210159136423,0.6164880097853885 l -16.730563145256877 7.141282545929892" fill="#ffdc14" stroke="none" /><path d="M 119.31412917781788 91.75594674310238 l 42.610428938704835 -18.187858341207484 a67.32976198277134,67.32976198277134 0 0,0 0.4446141847866865,1.0669121873772798 l -42.916368968028 17.453713644388927" fill="#38ff80" stroke="none" /><path d="M 119.4528033332814 92.08871423366111 l 16.91798072334071 -6.880395478155679 a39.263567934309904,39.263567934309904 0 0,0 0.24855955936879748,0.6265324607311107 l -17.033598957675633 6.588962000211003" fill="#ffdd14" stroke="none" /><path d="M 119.58574465831526 92.42381321644754 l 16.998642105092074 -6.575439938672959 a39.22608690323034,39.22608690323034 0 0,0 0.23754069752948231,0.6301049217295293 l -17.109013486435995 6.282666736749272" fill="#ffdd14" stroke="none" /><path d="M 119.71291397450082 92.76114493625339 l 17.070498070181714 -6.268523342406596 a39.185056757084205,39.185056757084205 0 0,0 0.22645199165991295,0.6334265238695161 l -17.175590231885568 5.974561862156163" fill="#ffdc14" stroke="none" /><path d="M 119.83427380445688 93.10060997987247 l 17.186880781117498 -5.978489301267899 a39.19701088942139,39.19701088942139 0 0,0 0.2156107708816634,0.6374149325883551 l -17.286976973571527 5.6825726942053825" fill="#ffdc14" stroke="none" /><path d="M 119.94978838288452 93.4421083053983 l 17.309675476876954 -5.690034143091441 a39.22090430424192,39.22090430424192 0 0,0 0.2047616662318362,0.6414130030811162 l -17.404801858886046 5.392052106318937" fill="#ffdd14" stroke="none" /><path d="M 120.05942366710727 93.78553927170692 l 17.372347177092244 -5.381997562938034 a39.186927838667415,39.186927838667415 0 0,0 0.19355296967518507,0.6442748863569382 l -17.462176466771055 5.082985072990373" fill="#ffdc14" stroke="none" /><path d="M 120.16314734710363 94.1308016681162 l 30.997947150024167 -9.023050646449699 a53.28448807839591,53.28448807839591 0 0,0 0.2481065520637861,0.880442625813702 l -31.148272194162534 8.489600096732984" fill="#7bff26" stroke="none" /><path d="M 120.26092885502905 94.47779374421319 l 17.578608714791905 -4.79112797381733 a39.2198351147658,39.2198351147658 0 0,0 0.17146635355426282,0.6510856731567456 l -17.6582645491509 4.488661796287786" fill="#ffdd14" stroke="none" /><path d="M 120.35273937422433 94.82641323984039 l 17.680111836815712 -4.494215291379028 a39.24237719288734,39.24237719288734 0 0,0 0.1603564501096354,0.6543090382200781 l -17.754655813441637 4.190050428550855" fill="#ffdd14" stroke="none" /><path d="M 120.43855184770803 95.1765574152323 l 17.747472755096585 -4.188355246339876 a39.234996815531346,39.234996815531346 0 0,0 0.1490726948904261,0.6568417994453553 l -17.81675631154468 3.8830791129554947" fill="#ffdd14" stroke="none" /><path d="M 120.51834098615036 95.52812308129327 l 17.80552614782154 -3.8806315510409766 a39.223503028663046,39.223503028663046 0 0,0 0.13773480489623785,0.6591109019891572 l -17.869518663542145 3.5744041977664147" fill="#ffdd14" stroke="none" /><path d="M 120.592083275326 95.88100663000786 l 17.82065060085974 -3.564629216600018 a39.173666919192755,39.173666919192755 0 0,0 0.12623939453931377,0.6605378559202597 l -17.87921628768121 3.2581887956464435" fill="#ffdc14" stroke="none" /><path d="M 120.65975698304385 96.23510406497455 l 17.863759695061685 -3.2553720895849754 a39.15795577383531,39.15795577383531 0 0,0 0.11483570728393641,0.6623418432120766 l -17.917010219837856 2.9482372134523063" fill="#ffdc14" stroke="none" /><path d="M 120.7213421655516 96.59031103205396 l 31.79034448890183 -5.2310890880039365 a53.21785678423822,53.21785678423822 0 0,0 0.14059272790423985,0.9027061675631277 l -31.875458708944336 4.684594738509368" fill="#7cff26" stroke="none" /><path d="M 120.77682067341334 96.94652285012252 l 18.044317512361484 -2.651893284117089 a39.23814498454436,39.23814498454436 0 0,0 0.09221988643756426,0.6672571589771886 l -18.08718191535426 2.3417478169398147" fill="#ffdd14" stroke="none" /><path d="M 120.82617615685814 97.30363454192243 l 18.08188021812218 -2.341061406089445 a39.23279903716376,39.23279903716376 0 0,0 0.08074093926571876,0.6686508022568545 l -18.11940324364756 2.0303169269091774" fill="#ffdd14" stroke="none" /><path d="M 120.9064616781168 98.02013634271609 l 18.05324516207726 -1.7096610867369435 a39.134017809453276,39.134017809453276 0 0,0 0.057594796179633055,0.6693388347038866 l -18.079933580954634 1.399501204657395" fill="#ffdc14" stroke="none" /><path d="M 120.96210409425399 98.7389718711861 l 18.078392138467617 -1.0875511784422929 a39.11107478527818,39.11107478527818 0 0,0 0.03456378012666101,0.6705281006691558 l -18.09439750805085 0.7770512843964064" fill="#ffdb14" stroke="none" /><path d="M 120.99303781780057 99.45929381324524 l 62.842658851087 -1.618603973746456 a83.86350014354858,83.86350014354858 0 0,0 0.02471404795303008,1.4394693935414633 l -62.8611843306387 0.5395876642359261" fill="#4dd3ff" stroke="none" /><line stroke="#e1ed5e" stroke-width="0.3" x1="184.99686870605535" x2="189.99668451229388" y1="99.2704041080226" y2="99.22748670261217" /><path d="M 185.99683186730306 99.26182062694052 a86.0,86.0 0 0,1 -10.086455211305974,41.156179273409016" fill="none" id="id16" stroke="none" /><text fill="#e1ed5e" style="font-size:6.75px; font-family:Arial;" text-anchor="middle"><textPath startOffset="21.40746469413373" xlink:href="#id16">April</textPath></text><path d="M 120.99303781780057 100.54070618675476 l 18.162935915216522 0.4678128008067688 a39.16895951552705,39.16895951552705 0 0,0 -0.023082292095834393,0.672015749380303 l -18.152228936123844 -0.7795348147511825" fill="#ffdc14" stroke="none" /><path d="M 120.86939407059847 102.33845913500097 l 18.04220677321035 2.021666901380257 a39.155119451752824,39.155119451752824 0 0,0 -0.08058107499801996,0.6673268967905512 l -18.004843611952666 -2.3310874750942165" fill="#ffdc14" stroke="none" /><path d="M 120.82617615685814 102.69636545807757 l 18.036285621926268 2.3351582727762694 a39.18682388969057,39.18682388969057 0 0,0 -0.09209926846388172,0.6663844274053679 l -17.993541836907177 -2.6444310083817224" fill="#ffdc14" stroke="none" /><path d="M 120.77682067341334 103.0534771498775 l 18.023895582708278 2.6488919637258403 a39.2175036877137,39.2175036877137 0 0,0 -0.10360612317411176,0.66522563279574 l -17.9757679673959 -2.957905778453031" fill="#ffdd14" stroke="none" /><path d="M 120.7213421655516 103.40968896794604 l 17.94498242434865 2.9528400290598795 a39.18630414480634,39.18630414480634 0 0,0 -0.11491884250298635,0.6628213450632405 l -17.89164876435343 -3.2604544070437083" fill="#ffdc14" stroke="none" /><path d="M 120.65975698304385 103.76489593502545 l 17.904680220512805 3.262829172456591 a39.19955021442718,39.19955021442718 0 0,0 -0.12632280494676032,0.6609742944179261 l -17.846031123283886 -3.569706031907832" fill="#ffdd14" stroke="none" /><path d="M 120.592083275326 104.11899336999214 l 31.59586726060989 6.32005834599284 a53.22176229579682,53.22176229579682 0 0,0 -0.1868902183644564,0.8943373498945331 l -31.48271933142107 -6.861512147172782" fill="#7cff26" stroke="none" /><path d="M 120.51834098615036 104.47187691870673 l 17.749288273673116 3.868374768120206 a39.165944995198544,39.165944995198544 0 0,0 -0.14881033368794336,0.6556857875783239 l -17.68026707842751 -4.172494889637546" fill="#ffdc14" stroke="none" /><path d="M 120.43855184770803 104.8234425847677 l 17.742284187801054 4.18713075858587 a39.229665718004576,39.229665718004576 0 0,0 -0.16030450710480212,0.6540970930347912 l -17.667792154179956 -4.491083676228761" fill="#ffdd14" stroke="none" /><path d="M 120.35273937422433 105.17358676015961 l 17.60445229053511 4.474982930578851 a39.16431151127669,39.16431151127669 0 0,0 -0.1712236082750282,0.6501639297927475 l -17.525039201455353 -4.7765273647444015" fill="#ffdc14" stroke="none" /><path d="M 120.26092885502905 105.52220625578681 l 17.567032312872694 4.7879727739962705 a39.20783643286711,39.20783643286711 0 0,0 -0.18256196994757037,0.6478480268148487 l -17.482251850850545 -5.088828724714127" fill="#ffdd14" stroke="none" /><path d="M 120.16314734710363 105.8691983318838 l 17.492474897998974 5.09180450474675 a39.21848377806681,39.21848377806681 0 0,0 -0.1937088314923354,0.6447936996549374 l -17.40248974650301 -5.3913358079924105" fill="#ffdd14" stroke="none" /><path d="M 120.05942366710727 106.21446072829308 l 17.3883759316495 5.386963312072831 a39.20370817350098,39.20370817350098 0 0,0 -0.2046718899136827,0.6411317800431641 l -17.293339325958563 -5.684664125807379" fill="#ffdd14" stroke="none" /><path d="M 119.94978838288452 106.5578916946017 l 30.657862570467188 10.077848369439046 a53.27177660351314,53.27177660351314 0 0,0 -0.29303175316409386,0.8662963098993491 l -30.480345395730726 -10.602646353812554" fill="#7bff26" stroke="none" /><path d="M 119.83427380445688 106.89939002012753 l 17.234735879228456 5.995135788534038 a39.24767859070644,39.24767859070644 0 0,0 -0.22681388571133826,0.6344388059400827 l -17.129281823473175 -6.290109550855043" fill="#ffdd14" stroke="none" /><path d="M 119.71291397450082 107.23885506374661 l 17.078889775062304 6.27160489267597 a39.19399636909288,39.19399636909288 0 0,0 -0.2373463674684209,0.6295894381547615 l -16.968712723779444 -6.563862611024891" fill="#ffdc14" stroke="none" /><path d="M 119.58574465831526 107.57618678355244 l 16.951109649439626 6.557053363713144 a39.175122204868586,39.175122204868586 0 0,0 -0.2479996502037729,0.6251211238755133 l -16.83605132426973 -6.847075504802222" fill="#ffdc14" stroke="none" /><path d="M 119.4528033332814 107.91128576633889 l 16.870949726795423 6.861268381296126 a39.212796284048,39.212796284048 0 0,0 -0.25894292419300924,0.6213687532015733 l -16.750680958065928 -7.1498696439389775" fill="#ffdd14" stroke="none" /><path d="M 119.31412917781788 108.2440532568976 l 16.772587931416727 7.159220428193276 a39.236615449599356,39.236615449599356 0 0,0 -0.2697351359643718,0.6172067779343698 l -16.64721891343539 -7.44608927590349" fill="#ffdd14" stroke="none" /><path d="M 119.16976305983485 108.57439118712176 l 16.59755109392813 7.423873491987052 a39.182205585147884,39.182205585147884 0 0,0 -0.2799018828102462,0.611636128187649 l -16.467664746262827 -7.7076986023893905" fill="#ffdc14" stroke="none" /><line stroke="#e1ed5e" stroke-width="0.3" x1="174.33088141563837" x2="178.70328620479359" y1="141.23008692659167" y2="143.65538615756765" /><path d="M 175.20536237346943 141.71514677278685 a86.0,86.0 0 0,1 -30.301960400862466,31.631185727798858" fill="none" id="id17" stroke="none" /><text fill="#e1ed5e" style="font-size:6.75px; font-family:Arial;" text-anchor="middle"><textPath startOffset="22.145653131862474" xlink:href="#id17">May</textPath></text><path d="M 118.18653347947321 110.5 l 13.834573667775226 7.987394831213731 a36.97478966242747,36.97478966242747 0 0,0 -0.32207909960381725,0.5469607243440399 l -13.695420858041643 -8.22370672385132" fill="#ffc011" stroke="none" /><path d="M 117.21940702142032 112.02048342749411 l 14.788396911157891 10.323449568771268 a39.03525143159662,39.03525143159662 0 0,0 -0.38827974519748915,0.5461640872249297 l -14.609002067430442 -10.575790882705702" fill="#ffda14" stroke="none" /><path d="M 117.01052211995028 112.31430620078461 l 14.734197305924598 10.666422580593984 a39.18980871031141,39.18980871031141 0 0,0 -0.39917242552531973,0.5415540585091413 l -14.548922860815448 -10.917782948372004" fill="#ffdc14" stroke="none" /><path d="M 116.79662413953412 112.60449989151573 l 14.553555084207039 10.92125905516297 a39.195600153307055,39.195600153307055 0 0,0 -0.40847045666488435,0.5347009398521493 l -14.36393265018785 -11.169480908255997" fill="#ffdc14" stroke="none" /><path d="M 116.57777611688842 112.89097897827486 l 14.389558561102533 11.189407771580191 a39.22806193379039,39.22806193379039 0 0,0 -0.41793496740289565,0.528047178455341 l -14.195357163058075 -11.434774893950216" fill="#ffdd14" stroke="none" /><path d="M 116.35404254752997 113.17365903436017 l 14.120580908554924 11.3745404364558 a39.13204277889322,39.13204277889322 0 0,0 -0.4258929927050544,0.5195202018682095 l -13.92324109661124 -11.615262920022502" fill="#ffdc14" stroke="none" /><path d="M 116.1254893667686 113.45245675266167 l 13.937050023511175 11.62678281797393 a39.150025951887415,39.150025951887415 0 0,0 -0.43494828063870894,0.5123679809305036 l -13.735407179365351 -11.86431758135399" fill="#ffdc14" stroke="none" /><path d="M 115.89218393027572 113.72728997021213 l 13.768120804474687 11.892574831573524 a39.19325387640113,39.19325387640113 0 0,0 -0.4441695614307499,0.5053834258263984 l -13.56194017908535 -12.127170535211215" fill="#ffdc14" stroke="none" /><path d="M 115.6541949942343 113.99807769240083 l 13.534908110348022 12.102998292658288 a39.15699053333603,39.15699053333603 0 0,0 -0.4523607586428603,0.4972237156897467 l -13.325149650863283 -12.333559583905707" fill="#ffdc14" stroke="none" /><path d="M 115.41159269507618 114.26474011684316 l 13.323231586948811 12.331784252581503 a39.154376959061075,39.154376959061075 0 0,0 -0.4607988499582544,0.48935241016466613 l -13.109576903254297 -12.558678122690667" fill="#ffdc14" stroke="none" /><path d="M 115.16444852881244 114.52719865689866 l 13.127088094467767 12.575453447754002 a39.17862677037365,39.17862677037365 0 0,0 -0.4694218861053493,0.48166820895514034 l -12.909279407211612 -12.79894434877688" fill="#ffdc14" stroke="none" /><path d="M 114.91283532996324 114.78537596483092 l 12.90270962227245 12.792430715508335 a39.169375311434436,39.169375311434436 0 0,0 -0.4775084077709091,0.47342716385228556 l -12.681209294371577 -13.012037889589283" fill="#ffdc14" stroke="none" /><path d="M 114.65682725009322 115.03919595460226 l 12.676172211191497 13.006869398503714 a39.162158282470614,39.162158282470614 0 0,0 -0.48547558637260735,0.465074629842906 l -12.451024138953578 -13.2225561586522" fill="#ffdc14" stroke="none" /><path d="M 114.39649973595853 115.28858382429668 l 12.48347887718241 13.257021965966997 a39.20949961649663,39.20949961649663 0 0,0 -0.4939841085810203,0.4572243161480616 l -12.254064997287422 -13.469364028247439" fill="#ffdd14" stroke="none" /><path d="M 114.13192950727249 115.5334660781643 l 12.24142360605881 13.455468924841396 a39.190714551395345,39.190714551395345 0 0,0 -0.5015197916067563,0.44846209017926164 l -12.008638787628675 -13.663626544904044" fill="#ffdc14" stroke="none" /><path d="M 113.86319453409587 115.77377054828091 l 12.004256773990798 13.65864061777929 a39.184076666731094,39.184076666731094 0 0,0 -0.5090581038680824,0.43971226573654904 l -11.768019190359862 -13.862697015980556" fill="#ffdc14" stroke="none" /><path d="M 113.59037401385872 116.0094264158162 l 11.763367833562157 13.85721772936853 a39.17688933747495,39.17688933747495 0 0,0 -0.5164365941101074,0.43082977451060966 l -11.523756905290155 -14.05710968779101" fill="#ffdc14" stroke="none" /><path d="M 113.31354834802062 116.24036423190432 l 11.500907943030484 14.029237669023509 a39.14084874221738,39.14084874221738 0 0,0 -0.5232744348580529,0.4215128440679416 l -11.258382737817179 -14.224598806884854" fill="#ffdc14" stroke="none" /><path d="M 113.03279911837588 116.46651593811092 l 11.309125814093413 14.288711026114358 a39.222612037432945,39.222612037432945 0 0,0 -0.5315412062516147,0.4133296569795014 l -11.062174663206568 -14.480741734714654" fill="#ffdd14" stroke="none" /><path d="M 112.7482090630111 116.68781488649013 l 10.759099902891386 14.084007144631572 a38.7233599514999,38.7233599514999 0 0,0 -0.531703100064168,0.398999918757678 l -10.515743813916451 -14.266626090653265" fill="#ffd614" stroke="none" /><path d="M 112.45986205192187 116.90419585922612 l 10.665051897232996 14.469191181119832 a38.97500557458798,38.97500557458798 0 0,0 -0.5419734165981025,0.3923469578189486 l -10.415097470260925 -14.650138910311858" fill="#ffda14" stroke="none" /><path d="M 112.16784306229584 117.11559508785304 l 10.584800446349123 14.888847398665845 a39.26788924177589,39.26788924177589 0 0,0 -0.5527514675768626,0.3858634532109872 l -10.327653887598501 -15.068355667681955" fill="#ffdd14" stroke="none" /><path d="M 111.8722381534696 117.32195027204791 l 10.221218454543989 14.913063189993967 a39.07962279485564,39.07962279485564 0 0,0 -0.5566123922719182,0.374513658342355 l -9.963709774175067 -15.086326522393442" fill="#ffdb14" stroke="none" /><path d="M 111.5731344415666 117.5232005979908 l 10.072308518895412 15.250758863349382 a39.276680355246214,39.276680355246214 0 0,0 -0.5657981011767066,0.36674349340401613 l -9.809024785461697 -15.421416198457294" fill="#ffde14" stroke="none" /><path d="M 111.27062007382361 117.71928675628689 l 9.82094769607343 15.440160994281754 a39.29889573658339,39.29889573658339 0 0,0 -0.5723339054857209,0.35717868665571845 l -9.554449661797994 -15.606475477779021" fill="#ffde14" stroke="none" /><path d="M 110.96478420261333 117.91015095944535 l 9.463585311155875 15.458055389726173 a39.12487029949091,39.12487029949091 0 0,0 -0.5758198006434037,0.3457632456396851 l -9.196832753955034 -15.618232635901782" fill="#ffdc14" stroke="none" /><line stroke="#e1ed5e" stroke-width="0.3" x1="143.1302829299769" x2="145.66735839644613" y1="173.24464959558577" y2="177.55315839532614" /><path d="M 143.63769802327073 174.10635135553383 a86.0,86.0 0 0,1 -40.68552437913181,11.842963189579606" fill="none" id="id18" stroke="none" /><text fill="#e1ed5e" style="font-size:6.75px; font-family:Arial;" text-anchor="middle"><textPath startOffset="21.407464694133747" xlink:href="#id18">June</textPath></text><path d="M 110.65571695917076 118.09573695890943 l 9.233867475403121 15.681125689484091 a39.197857331089985,39.197857331089985 0 0,0 -0.5827555382142756,0.3364540668597586 l -8.963319469328447 -15.837326653620021" fill="#ffdc14" stroke="none" /><path d="M 110.34350942703117 118.27599006163325 l 8.968856369308028 15.847109825348435 a39.20909867044308,39.20909867044308 0 0,0 -0.5886141063342063,0.3264943225235516 l -8.695498074817728 -15.99873706330513" fill="#ffdd14" stroke="none" /><path d="M 110.02825361518725 118.45085714620011 l 8.697292183360716 16.00203802094957 a39.212855683463346,39.212855683463346 0 0,0 -0.5941890115917067,0.31637218084341034 l -8.421314355982457 -16.14898066951555" fill="#ffdd14" stroke="none" /><path d="M 109.71004243097381 118.62028667847754 l 8.300975239314049 15.918214545996584 a38.95259714515095,38.95259714515095 0 0,0 -0.5955532660412,0.30409374112566084 l -8.026494751559266 -16.05836623879508" fill="#ffd914" stroke="none" /><path d="M 109.3889696526874 118.78422872680471 l 8.058137548011644 16.12167302836885 a39.023371548528615,39.023371548528615 0 0,0 -0.6017770912013886,0.29435933074119636 l -7.780200207548186 -16.25762610920727" fill="#ffda14" stroke="none" /><path d="M 109.06512990194946 118.94263497670748 l 7.829706790440838 16.36107582684209 a39.13805696969639,39.13805696969639 0 0,0 -0.6085246341783729,0.28482025500553076 l -7.547693442390959 -16.493072313418153" fill="#ffdc14" stroke="none" /><path d="M 108.73861861582097 119.09545874513695 l 7.576934320189438 16.556968908546075 a39.208326478043666,39.208326478043666 0 0,0 -0.6144254638278577,0.2748246947938109 l -7.291595453505954 -16.68459735424974" fill="#ffdd14" stroke="none" /><path d="M 107.06938296918513 119.77432235084164 l 6.101867043989694 17.06800811269923 a39.12593948896703,39.12593948896703 0 0,0 -0.6343884075861439,0.22067321906189227 l -5.807972864358529 -17.17023976432971" fill="#ffdc14" stroke="none" /><path d="M 106.72888874123015 119.89276391827305 l 5.805936338162741 17.164219136498858 a39.119583751525646,39.119583751525646 0 0,0 -0.6379794260753658,0.20971650923253796 l -5.5104341744396415 -17.261356567133415" fill="#ffdb14" stroke="none" /><path d="M 106.38641147887787 120.00534299687104 l 5.420596176763771 16.979940318963063 a38.82417560918579,38.82417560918579 0 0,0 -0.6366413591457207,0.19723312045628533 l -5.128314184746427 -17.070490027225993" fill="#ffd814" stroke="none" /><path d="M 106.0420521117495 120.11202640906438 l 5.215512697273361 17.360745515648958 a39.127246276104515,39.127246276104515 0 0,0 -0.6449287876929828,0.1877293708045638 l -4.916723897198772 -17.44771858075604" fill="#ffdc14" stroke="none" /><path d="M 105.69591212413111 120.21278271476187 l 4.936202260277435 17.516840419711432 a39.199060169250615,39.199060169250615 0 0,0 -0.6492458187021591,0.17695483495519054 l -4.634775040640581 -17.598995748810765" fill="#ffdd14" stroke="none" /><path d="M 105.3480935250658 120.30758222061773 l 4.665162035945131 17.714380119464057 a39.31837874481492,39.31837874481492 0 0,0 -0.6541730196379705,0.16628822346827546 l -4.360383723081763 -17.791853574767604" fill="#ffde14" stroke="none" /><path d="M 104.9986988182912 120.39639698878246 l 4.333675081265182 17.682873201809585 a39.20617324923759,39.20617324923759 0 0,0 -0.6550564556219598,0.1545915399005276 l -4.0294864719033425 -17.754660885356337" fill="#ffdd14" stroke="none" /><path d="M 104.29559338865022 120.5559693870025 l 3.7199367355614172 17.80124391191839 a39.18576955006829,39.18576955006829 0 0,0 -0.6596336787201469,0.13194520986263808 l -3.4138065713103116 -17.86247851844389" fill="#ffdc14" stroke="none" /><path d="M 103.94208987418118 120.62667999033965 l 3.4017530180589994 17.799409234486234 a39.1215587820857,39.1215587820857 0 0,0 -0.6607170509212573,0.12040465632084271 l -3.095701233586685 -17.85518206473844" fill="#ffdc14" stroke="none" /><path d="M 103.58742460773223 120.69131181640829 l 5.491675291769686 31.674523727009273 a53.147067531006726,53.147067531006726 0 0,0 -0.9002670270255573,0.14813859670526852 l -4.9471307616910565 -31.76412832221021" fill="#7dff26" stroke="none" /><path d="M 103.2317021107853 120.74984581791261 l 2.7943337152972303 17.941626971962094 a39.157926074127644,39.157926074127644 0 0,0 -0.665078530814835,0.09774364079273705 l -2.4859300788747096 -17.986951686053715" fill="#ffdc14" stroke="none" /><path d="M 102.875027216393 120.80226474461374 l 2.4880749307462118 18.002470765739137 a39.17359266992358,39.17359266992358 0 0,0 -0.6669251512245064,0.0863468131326991 l -2.1786719576309297 -18.042529175072232" fill="#ffdc14" stroke="none" /><path d="M 102.51750503828377 120.84855314841334 l 2.1802403298503377 18.055517546922765 a39.18667539115222,39.18667539115222 0 0,0 -0.668532329917776,0.07491044199228601 l -1.8699720983317625 -18.09028374942202" fill="#ffdc14" stroke="none" /><path d="M 102.15924093988457 120.88869738790638 l 1.860861224593499 18.002144310722706 a39.09806631331871,39.09806631331871 0 0,0 -0.6682053843167481,0.0632797446253151 l -1.5515562768917357 -18.031435810853203" fill="#ffdb14" stroke="none" /><path d="M 101.80034050326958 120.92268563240118 l 1.554106266940954 18.061070560540088 a39.12781057055024,39.12781057055024 0 0,0 -0.6697022993150965,0.05183919346034531 l -1.2438349728506217 -18.085087520995486" fill="#ffdc14" stroke="none" /><path d="M 101.08105385017728 120.97215588758144 l 0.9320290322531823 18.081114232154086 a39.10511999389034,39.10511999389034 0 0,0 -0.6706979452577498,0.028802655605008092 l -0.621505326394603 -18.094449456184925" fill="#ffdb14" stroke="none" /><path d="M 100.72087961077811 120.9876233191556 l 1.1023826931744667 32.094669306749836 a53.11359596046261,53.11359596046261 0 0,0 -0.9114968012369832,0.02347692429811984 l -0.5512725778667398 -32.108863948397996" fill="#7dff26" stroke="none" /><line stroke="#e1ed5e" stroke-width="0.3" x1="101.45913802915013" x2="101.54496967792366" y1="184.9874750549273" y2="189.98673829345242" /><path d="M 101.47630435890484 185.9873277026323 a86.0,86.0 0 0,1 -42.54439059252881,-10.42667462771756" fill="none" id="id19" stroke="none" /><text fill="#e1ed5e" style="font-size:6.75px; font-family:Arial;" text-anchor="middle"><textPath startOffset="22.145653131862474" xlink:href="#id19">July</textPath></text><path d="M 100.36049292484886 120.99690560180557 l 0.30932809599437716 18.01681082729527 a39.01946603697001,39.01946603697001 0 0,0 -0.6698210208432273,0.0057496078691721105 l -2.2067481404519764e-15 -18.01946603697001" fill="#ffda14" stroke="none" /><path d="M 100.0 121.0 l 2.218592568904186e-15 18.116183134997428 a39.11618313499743,39.11618313499743 0 0,0 -0.6714812984408841,-0.005763859355529588 l 0.31098837359202974 -18.113513673836334" fill="#ffdb14" stroke="none" /><path d="M 99.63950707515114 120.99690560180557 l -0.31124278124479515 18.128331644179944 a39.13100328912476,39.13100328912476 0 0,0 -0.671537742497833,-0.01729643013837522 l 0.6223938378133721 -18.120317496691523" fill="#ffdc14" stroke="none" /><path d="M 99.27912038922189 120.98762331915562 l -0.6209904689459691 18.079459943326835 a39.09012164151699,39.09012164151699 0 0,0 -0.6704407062025749,-0.028791608653152424 l 0.9312569357493828 -18.066135766247854" fill="#ffdb14" stroke="none" /><path d="M 98.55909050195518 120.95050786540614 l -1.2497518344979408 18.171117390774818 a39.21404367177014,39.21404367177014 0 0,0 -0.6711782445653397,-0.05195344095724432 l 1.5614990738385166 -18.14698618282252" fill="#ffdd14" stroke="none" /><path d="M 98.19965949673042 120.92268563240118 l -2.781417878023658 32.32429185953567 a53.44373791092256,53.44373791092256 0 0,0 -0.9133800414555675,-0.08649803956349138 l 3.3358974828642407 -32.271782064467" fill="#79ff26" stroke="none" /><path d="M 97.84075906011543 120.88869738790638 l -1.8657747140672305 18.049677864222694 a39.14585314295978,39.14585314295978 0 0,0 -0.6678358943966668,-0.07483240493952024 l 2.1753465100646965 -18.0149896987762" fill="#ffdc14" stroke="none" /><path d="M 97.12497278360702 120.80226474461374 l -2.4882558708566855 18.003779958243406 a39.17491430691489,39.17491430691489 0 0,0 -0.6653670677736602,-0.09778604578936831 l 2.7969480442380306 -17.958412839155155" fill="#ffdc14" stroke="none" /><path d="M 96.41257539226777 120.69131181640829 l -3.101964584682358 17.891307409437523 a39.15822307120434,39.15822307120434 0 0,0 -0.661336267581706,-0.12051749822356438 l 3.408635585815121 -17.83542173728259" fill="#ffdc14" stroke="none" /><path d="M 96.05791012581884 120.62667999033965 l -3.403668094627831 17.809429724328716 a39.131760631670346,39.131760631670346 0 0,0 -0.6587245195550839,-0.13176335256713786 l 3.7088890997138733 -17.748376975098715" fill="#ffdc14" stroke="none" /><path d="M 95.70440661134978 120.55596938700252 l -3.7255410490446974 17.828062580720225 a39.213167530393875,39.213167530393875 0 0,0 -0.6577310175054707,-0.14334941396507345 l 4.031034483169305 -17.76148170862143" fill="#ffdd14" stroke="none" /><path d="M 95.35216902796893 120.47920084513623 l -4.015501784139672 17.693041770721564 a39.142987121169625,39.142987121169625 0 0,0 -0.6540007422567663,-0.15434239442089986 l 4.318634680136326 -17.621503232654437" fill="#ffdc14" stroke="none" /><path d="M 94.6519064749342 120.30758222061772 l -4.632876562526973 17.591786918186255 a39.191605542625446,39.191605542625446 0 0,0 -0.64912234928362,-0.17692118281611927 l 4.934180312745288 -17.509665241225992" fill="#ffdc14" stroke="none" /><path d="M 93.95794788825049 120.11202640906438 l -5.228291900123482 17.403283325726516 a39.171662188925026,39.171662188925026 0 0,0 -0.6423394667021133,-0.19899840874284713 l 5.526271999697229 -17.310968329177022" fill="#ffdc14" stroke="none" /><path d="M 93.61358852112213 120.00534299687104 l -9.785296691807474 30.652302516553743 a53.1763217430617,53.1763217430617 0 0,0 -0.8672229091679305,-0.28507339547921584 l 10.310042338623148 -30.479808199672505" fill="#7cff26" stroke="none" /><path d="M 93.27111125876986 119.89276391827306 l -5.82889008201432 17.232077801583095 a39.191219446425734,39.191219446425734 0 0,0 -0.6354468575249932,-0.2210414028944287 l 6.123842711584335 -17.129477966120078" fill="#ffdc14" stroke="none" /><path d="M 92.59220618246901 119.65005319985036 l -6.432768427177995 17.063682511954116 a39.23594720617678,39.23594720617678 0 0,0 -0.6282006551455329,-0.2430015086973946 l 6.724741344817056 -16.95074111511868" fill="#ffdd14" stroke="none" /><path d="M 92.25597844496254 119.51999308798841 l -6.698729985584176 16.885175497974355 a39.16541040046049,39.16541040046049 0 0,0 -0.622814956137109,-0.2532934206516427 l 6.987599402911726 -16.76769482074342" fill="#ffdc14" stroke="none" /><path d="M 91.59046798132341 119.24265499422711 l -7.309899340599082 16.726480229967937 a39.254034328147824,39.254034328147824 0 0,0 -0.6151417419637264,-0.275145076893293 l 7.595954485418444 -16.59853140216479" fill="#ffdd14" stroke="none" /><path d="M 91.26138138417905 119.09545874513695 l -13.410186650830905 29.303677985433048 a53.226365750485684,53.226365750485684 0 0,0 -0.8275718636732172,-0.38734541875212763 l 13.911247228375613 -29.069156335110392" fill="#7cff26" stroke="none" /><path d="M 90.93487009805054 118.94263497670748 l -7.835629888018574 16.37345282271087 a39.15177823463995,39.15177823463995 0 0,0 -0.6037572430691684,-0.2953279222464073 l 8.115547380349811 -16.236531150367245" fill="#ffdc14" stroke="none" /><path d="M 90.6110303473126 118.78422872680471 l -8.108742120936533 16.222916072878128 a39.13655713445906,39.13655713445906 0 0,0 -0.5983658634155187,-0.3055298733855377 l 8.386035206065634 -16.081328247819755" fill="#ffdc14" stroke="none" /><path d="M 89.97174638481275 118.45085714620012 l -8.67601107767889 15.962883183435906 a39.168291272104476,39.168291272104476 0 0,0 -0.5880014982631209,-0.32615451915324617 l 8.948756764098112 -15.811595748849511" fill="#ffdc14" stroke="none" /><line stroke="#e1ed5e" stroke-width="0.3" x1="58.13341422392154" x2="55.67067388415222" y1="173.97424548756322" y2="178.32567169271397" /><path d="M 57.64086615596768 174.84453072859336 a86.0,86.0 0 0,1 -31.369924170532247,-30.572349798747897" fill="none" id="id20" stroke="none" /><text fill="#e1ed5e" style="font-size:6.75px; font-family:Arial;" text-anchor="middle"><textPath startOffset="22.145653131862474" xlink:href="#id20">August</textPath></text><path d="M 89.65649057296885 118.27599006163327 l -8.982241477580994 15.870760029130484 a39.23627390296116,39.23627390296116 0 0,0 -0.5833266783617574,-0.33678381477765346 l 9.25336062380315 -15.71422931707666" fill="#ffdd14" stroke="none" /><path d="M 89.34428304082925 118.09573695890944 l -9.221607965373396 15.660306361268752 a39.17369661890042,39.17369661890042 0 0,0 -0.5765384014028183,-0.34619474474863504 l 9.489079123333642 -15.499697615984198" fill="#ffdc14" stroke="none" /><path d="M 88.1277618465304 117.32195027204791 l -8.456294316652759 12.337986127413787 a35.957767722829125,35.957767722829125 0 0,0 -0.5061567928238964,-0.35333675150860905 l 8.66684620065042 -12.191004560100048" fill="#ffb210" stroke="none" /><path d="M 86.96720088162412 116.46651593811092 l -18.913030168251755 23.89599577763615 a51.47492943962308,51.47492943962308 0 0,0 -0.6881688945805444,-0.5543401485540267 l 19.32044983318756 -23.567807335288713" fill="#8fff24" stroke="none" /><path d="M 86.13680546590413 115.77377054828092 l -12.02053002374218 13.677156588757125 a39.208727424097205,39.208727424097205 0 0,0 -0.5017503006002154,-0.4486682127425989 l 12.253545351165767 -13.468792846131144" fill="#ffdd14" stroke="none" /><path d="M 85.86807049272751 115.53346607816431 l -12.192996584798827 13.4022391453112 a39.11875215971088,39.11875215971088 0 0,0 -0.4928408192765212,-0.45616610463613977 l 12.421267175389316 -13.190955294542682" fill="#ffdb14" stroke="none" /><path d="M 85.60350026404147 115.28858382429668 l -12.46545977847945 13.23788630757704 a39.18321537520866,39.18321537520866 0 0,0 -0.485736621639622,-0.46532469572384927 l 12.690868885984386 -13.021949481547608" fill="#ffdc14" stroke="none" /><path d="M 85.34317274990678 115.03919595460226 l -12.674938851318188 13.00560386262063 a39.16039114986425,39.16039114986425 0 0,0 -0.4773988831064932,-0.47331857529048765 l 12.896329654554643 -12.786105277101484" fill="#ffdc14" stroke="none" /><path d="M 85.08716467003676 114.78537596483092 l -22.849089839730887 22.653799647062293 a53.175698049200626,53.175698049200626 0 0,0 -0.637128927961811,-0.6537504080838805 l 23.234605568843506 -22.258226546910677" fill="#7cff26" stroke="none" /><path d="M 84.83555147118756 114.52719865689866 l -13.140513698508954 12.588314872726015 a39.19721878737508,39.19721878737508 0 0,0 -0.4613030455744521,-0.48988784843670785 l 13.35467257781966 -12.360885564344818" fill="#ffdc14" stroke="none" /><path d="M 84.58840730492382 114.26474011684316 l -13.325596472570641 12.333973155407373 a39.157599377343274,39.157599377343274 0 0,0 -0.45236779230743107,-0.49723144691922233 l 13.535361965719952 -12.103404132930477" fill="#ffdc14" stroke="none" /><path d="M 84.3458050057657 113.99807769240083 l -13.5268936886585 12.095831747364139 a39.146239239159485,39.146239239159485 0 0,0 -0.4436367536452363,-0.5047771883726618 l 13.73254150626233 -11.861842281180177" fill="#ffdc14" stroke="none" /><path d="M 84.1078160697243 113.72728997021213 l -13.772930640114254 11.896729453041738 a39.19960961384251,39.19960961384251 0 0,0 -0.4354991443480157,-0.513016896994939 l 13.97512434796938 -11.658545773597243" fill="#ffdd14" stroke="none" /><path d="M 83.8745106332314 113.45245675266167 l -13.970848255824476 11.654978505445477 a39.19404091865438,39.19404091865438 0 0,0 -0.4265677485166548,-0.5203432942446027 l 14.168862823579762 -11.41343292950238" fill="#ffdc14" stroke="none" /><path d="M 83.64595745247003 113.17365903436017 l -14.16410980152582 11.409604231384503 a39.18793762872819,39.18793762872819 0 0,0 -0.4175074838795817,-0.5275070669884231 l 14.357883716046963 -11.164777220481398" fill="#ffdc14" stroke="none" /><path d="M 83.4222238831116 112.89097897827486 l -32.51503731863645 25.28388968441673 a62.18862378626016,62.18862378626016 0 0,0 -0.6480884450800327,-0.8483685785283286 l 32.94427774107078 -24.722000192647535" fill="#31ff43" stroke="none" /><path d="M 83.20337586046588 112.60449989151573 l -14.522352902541085 10.897844356342748 a39.15658958728249,39.15658958728249 0 0,0 -0.39883406822402573,-0.5410950118465363 l 14.70728899034894 -10.646943035227332" fill="#ffdc14" stroke="none" /><path d="M 82.37810715431573 111.42229804090323 l -15.307805130045246 9.922334341640614 a39.24230294361817,39.24230294361817 0 0,0 -0.3615567314022561,-0.5684272347412165 l 15.47587955307339 -9.658093432220726" fill="#ffdd14" stroke="none" /><line stroke="#e1ed5e" stroke-width="0.3" x1="26.387840678322732" x2="22.057713659400548" y1="142.50000000000003" y2="145.00000000000006" /><path d="M 25.521815274538298 143.00000000000003 a86.0,86.0 0 0,1 -11.493303480769221,-40.785679425670985" fill="none" id="id21" stroke="none" /><text fill="#e1ed5e" style="font-size:6.75px; font-family:Arial;" text-anchor="middle"><textPath startOffset="21.40746469413373" xlink:href="#id21">September</textPath></text><path d="M 81.81346652052679 110.50000000000001 l -15.765555319915439 9.102247607877127 a39.204495215754235,39.204495215754235 0 0,0 -0.33149572816652156,-0.5857211883630605 l 15.919484413103339 -8.830269649414944" fill="#ffdd14" stroke="none" /><path d="M 81.63589988554817 110.18625677009913 l -15.898265428965088 8.818499836601585 a39.18023055458782,39.18023055458782 0 0,0 -0.3211932806245641,-0.5909594595960473 l 16.047304059204983 -8.54428554353095" fill="#ffdc14" stroke="none" /><path d="M 81.4637452351635 109.86951160357371 l -16.10898866546228 8.577129121963697 a39.250113966735384,39.250113966735384 0 0,0 -0.3115560614318303,-0.5974498280020661 l 16.253852795869058 -8.299333050857129" fill="#ffdd14" stroke="none" /><path d="M 81.29705330413844 109.54985784667822 l -16.16182959301265 8.252345347787365 a39.14678868375138,39.14678868375138 0 0,0 -0.30046108559661144,-0.601123442095196 l 16.301110591820997 -7.973690049528416" fill="#ffdc14" stroke="none" /><path d="M 81.1358732173502 109.22738970284198 l -16.330404136482073 7.988018990140391 a39.179398962773064,39.179398962773064 0 0,0 -0.29033938758435235,-0.6066976532998669 l 16.465122782026338 -7.70650883477542" fill="#ffdc14" stroke="none" /><path d="M 80.9802524753101 108.90220220490708 l -16.468175829019362 7.707937814925534 a39.18276987959361,39.18276987959361 0 0,0 -0.27990591390230596,-0.6116449368512958 l 16.59806620777672 -7.42410389585955" fill="#ffdc14" stroke="none" /><path d="M 80.83023694016515 108.57439118712176 l -29.345846176043285 13.126023730450031 a53.14764667530629,53.14764667530629 0 0,0 -0.36536759192608415,-0.8360325523335782 l 29.566847649986336 -12.620329108340602" fill="#7dff26" stroke="none" /><path d="M 80.68587082218212 108.24405325689762 l -16.701649764593764 7.128941143020705 a39.15948530878032,39.15948530878032 0 0,0 -0.2585908835038578,-0.620523983703516 l 16.821566492634105 -6.841184649875908" fill="#ffdc14" stroke="none" /><path d="M 80.5471966667186 107.91128576633889 l -16.846395667470087 6.851282459127583 a39.18628929495251,39.18628929495251 0 0,0 -0.2480703439062743,-0.6252993181863591 l 16.961524686342486 -6.561082123727659" fill="#ffdc14" stroke="none" /><path d="M 80.41425534168474 107.57618678355246 l -16.96736929481723 6.563342943842181 a39.19255593327088,39.19255593327088 0 0,0 -0.23733764464754897,-0.6295662998360684 l 17.077537623279216 -6.271108363811967" fill="#ffdc14" stroke="none" /><path d="M 80.28708602549918 107.23885506374661 l -17.099046594426653 6.2790067559476 a39.215469257738306,39.215469257738306 0 0,0 -0.22662774670314725,-0.6339181420057508 l 17.20431451117374 -5.9845536575609275" fill="#ffdd14" stroke="none" /><path d="M 80.16572619554312 106.89939002012753 l -17.198353662200365 5.982480164862185 a39.209158069858425,39.209158069858425 0 0,0 -0.21567758880676705,-0.6376124679111698 l 17.2985166725795 -5.686366022476854" fill="#ffdd14" stroke="none" /><path d="M 80.05021161711548 106.5578916946017 l -17.316207115802 5.692181222540941 a39.227779786567524,39.227779786567524 0 0,0 -0.20479756125369467,-0.641525443725818 l 17.411369392832952 -5.39408674512373" fill="#ffdd14" stroke="none" /><path d="M 79.83685265289637 105.86919833188381 l -17.49698045294863 5.093116006127942 a39.223176331878676,39.223176331878676 0 0,0 -0.1826333965407588,-0.6481014945960698 l 17.581832341563967 -4.792006587628877" fill="#ffdd14" stroke="none" /><path d="M 79.73907114497094 105.5222062557868 l -17.2164163379136 4.69241083090118 a38.84443080981674,38.84443080981674 0 0,0 -0.1698251124044722,-0.6448536131830418 l 17.294430931122804 -4.396176713345334" fill="#ffd814" stroke="none" /><path d="M 79.64726062577567 105.17358676015961 l -17.58866409911989 4.47096963406034 a39.148021221619686,39.148021221619686 0 0,0 -0.1599708825247532,-0.6527357908985068 l 17.662822508160936 -4.168378018553733" fill="#ffdc14" stroke="none" /><path d="M 79.56144815229197 104.8234425847677 l -17.721284220446183 4.182174823470063 a39.208088880382306,39.208088880382306 0 0,0 -0.1489704586541021,-0.6563913277242601 l 17.79046554065795 -3.8773491618067766" fill="#ffdd14" stroke="none" /><path d="M 79.48165901384964 104.47187691870673 l -17.779496543533032 3.874958519936783 a39.19686239088304,39.19686239088304 0 0,0 -0.13764125529552373,-0.6586632332843948 l 17.84339550965292 -3.569178835366979" fill="#ffdc14" stroke="none" /><path d="M 79.407916724674 104.11899336999214 l -17.858874279209353 3.5722750227864895 a39.21264778550965,39.21264778550965 0 0,0 -0.12636501262282415,-0.6611951428143356 l 17.917565584114335 -3.2651773149388394" fill="#ffdd14" stroke="none" /><path d="M 79.34024301695615 103.76489593502545 l -31.69486807902916 5.775860775605508 a53.21684699417744,53.21684699417744 0 0,0 -0.15606520164877424,-0.9001426103966972 l 31.78934809817017 -5.230925132288218" fill="#7cff26" stroke="none" /><path d="M 79.2786578344484 103.40968896794605 l -17.638123384607866 2.9023464908441015 a38.875318505793565,38.875318505793565 0 0,0 -0.10270212682623915,-0.659421327759175 l 17.685347003572375 -2.599136981153477" fill="#ffd814" stroke="none" /><path d="M 79.22317932658666 103.0534771498775 l -18.028420729710568 2.64955700450319 a39.22207744269488,39.22207744269488 0 0,0 -0.092182123518719,-0.6669839253080013 l 18.0712473697845 -2.339684770995103" fill="#ffdd14" stroke="none" /><path d="M 79.17382384314188 102.69636545807758 l -18.0391721015304 2.335531985350368 a39.189734461042235,39.189734461042235 0 0,0 -0.08065231254495721,-0.6679168458714274 l 18.07660650033502 -2.0255214625555413" fill="#ffdc14" stroke="none" /><path d="M 79.13060592940153 102.33845913500099 l -18.092234690392942 2.0272726338488165 a39.205460456253505,39.205460456253505 0 0,0 -0.06920250575085553,-0.6694714676870414 l 18.124369588625463 -1.7163966438788438" fill="#ffdd14" stroke="none" /><path d="M 79.0935383218832 101.97986365728391 l -18.070778641579686 1.7113215254753114 a39.1516297361016,39.1516297361016 0 0,0 -0.05762071622010985,-0.6696400648642313 l 18.097492980497538 -1.4008604132354179" fill="#ffdc14" stroke="none" /><path d="M 79.06263194458094 101.62068470465958 l -18.11765815939925 1.402421325615915 a39.17185523702488,39.17185523702488 0 0,0 -0.04614078725616461,-0.6708769201938153 l 18.13906290782048 -1.0912009812677566" fill="#ffdc14" stroke="none" /><path d="M 79.03789590574601 101.26102812881392 l -32.0915610922244 1.9305486249320853 a53.149577156304844,53.149577156304844 0 0,0 -0.04697007967029867,-0.9112069974461671 l 32.11997276135128 -1.3793698341091873" fill="#7dff26" stroke="none" /><path d="M 79.01933749520258 100.90099992219065 l -18.138535142354893 0.77894674432598 a39.155253100437335,39.155253100437335 0 0,0 -0.023074214896930696,-0.6717805905473283 l 18.149234044248672 -0.46745988921453185" fill="#ffdc14" stroke="none" /><path d="M 79.00696218219943 100.54070618675478 l -18.192596086607384 0.46857674160993873 a39.1986295234894,39.1986295234894 0 0,0 -0.011551590478317306,-0.67282223340611 l 18.197959108684366 -0.1562075922347764" fill="#ffdd14" stroke="none" /><line stroke="#e1ed5e" stroke-width="0.3" x1="15.003131293944662" x2="10.003315487706104" y1="100.72959589197737" y2="100.7725132973878" /><path d="M 14.003168132696942 100.73817937305945 a86.0,86.0 0 0,1 10.791469493833604,-42.45332614584628" fill="none" id="id22" stroke="none" /><text fill="#e1ed5e" style="font-size:6.75px; font-family:Arial;" text-anchor="middle"><textPath startOffset="22.145653131862435" xlink:href="#id22">October</textPath></text><path d="M 79.01933749520258 99.09900007780938 l -4.724269833210311 -0.20288047392005343 a25.728624106828434,25.728624106828434 0 0,0 0.02273725566152873,-0.44109668552695885 l 4.720090988092212 0.2839489528237243" fill="#ff2403" stroke="none" /><path d="M 79.0935383218832 98.0201363427161 l -32.3641568774727 -3.0649193051836883 a53.50895846896592,53.50895846896592 0 0,0 0.09444995577345638,-0.9137176440153627 l 32.30677452921758 3.6200414714819638" fill="#79ff26" stroke="none" /><path d="M 79.22317932658666 96.9465228501225 l -17.956811747602842 -2.639032950124078 a39.149699255103044,39.149699255103044 0 0,0 0.10342699513850934,-0.6640755023093912 l 17.908863260326065 2.946896634364919" fill="#ffdc14" stroke="none" /><path d="M 79.2786578344484 96.59031103205396 l -17.935546018007656 -2.951287271987445 a39.176740838936595,39.176740838936595 0 0,0 0.1148907968869213,-0.6626595854026012 l 17.8822404036285 3.258739890310639" fill="#ffdc14" stroke="none" /><path d="M 79.407916724674 95.88100663000787 l -30.88257701910283 -6.177380320833133 a52.49434220568886,52.49434220568886 0 0,0 0.18433585538174066,-0.8821137983324576 l 30.77198345289672 6.706610570451" fill="#84ff25" stroke="none" /><path d="M 79.48165901384962 95.52812308129327 l -17.776275488821735 -3.8742565060543157 a39.19356572333166,39.19356572333166 0 0,0 0.14891527816894254,-0.6561481923251596 l 17.707149349095133 4.178839032318484" fill="#ffdc14" stroke="none" /><path d="M 79.56144815229197 95.17655741523228 l -17.71326289774697 -4.180281813153987 a39.19984721150387,39.19984721150387 0 0,0 0.16018265949534943,-0.6535999132076096 l 17.63889271173532 4.483737550969714" fill="#ffdd14" stroke="none" /><path d="M 79.64726062577567 94.8264132398404 l -17.619492090014518 -4.478805988793827 a39.17982960853428,39.17982960853428 0 0,0 0.171291452301996,-0.6504215446136886 l 17.540011156907795 4.7806080377803" fill="#ffdc14" stroke="none" /><path d="M 79.73907114497095 94.47779374421319 l -17.543736236733288 -4.781623324851432 a39.18369057053138,39.18369057053138 0 0,0 0.18244954047950188,-0.6474490542957434 l 17.459068204179204 5.082080303050189" fill="#ffdc14" stroke="none" /><path d="M 79.94057633289273 93.78553927170692 l -17.35898515338169 -5.377857973836282 a39.17293927635484,39.17293927635484 0 0,0 0.20451125387635277,-0.6406285899441418 l 17.264109183728078 5.675055597471816" fill="#ffdc14" stroke="none" /><path d="M 80.05021161711548 93.44210830539832 l -59.84936514865357 -19.67367508380505 a84.0,84.0 0 0,0 0.46205831371054007,-1.3659933021033535 l 59.50282141337067 20.698170060382566" fill="#4dd2ff" stroke="none" /><path d="M 80.28708602549916 92.7611449362534 l -17.068825305089238 -6.267909079894419 a39.183274774624,39.183274774624 0 0,0 0.2372814409047617,-0.6294172127309188 l 16.95871318037004 6.559994572819483" fill="#ffdc14" stroke="none" /><path d="M 80.41425534168474 92.42381321644754 l -17.003932722242197 -6.577486463042033 a39.23175954739531,39.23175954739531 0 0,0 0.2483581951257551,-0.6260248912977848 l 16.88851585215031 6.8684123715534" fill="#ffdd14" stroke="none" /><path d="M 80.5471966667186 92.08871423366112 l -16.87381092810617 -6.862432006960578 a39.215885053645685,39.215885053645685 0 0,0 0.258963320979469,-0.621417698063882 l 16.753521762590225 7.151082214465724" fill="#ffdd14" stroke="none" /><path d="M 80.68587082218212 91.75594674310238 l -16.702196073156127 -7.129174329660456 a39.16007930293372,39.16007930293372 0 0,0 0.2692089823272311,-0.6160028354449543 l 16.577353208811918 7.414839234881277" fill="#ffdc14" stroke="none" /><path d="M 80.83023694016515 91.42560881287825 l -16.606457141257906 -7.427857053677291 a39.19196193911748,39.19196193911748 0 0,0 0.27997157827034996,-0.6117884253459983 l 16.47650109813251 7.711834461237961" fill="#ffdc14" stroke="none" /><path d="M 80.9802524753101 91.09779779509293 l -29.198117532591457 -13.666193304635327 a53.23809713501534,53.23809713501534 0 0,0 0.3945215324263687,-0.8243982667691184 l 28.959216742205182 14.165404073469533" fill="#7cff26" stroke="none" /><path d="M 81.1358732173502 90.77261029715801 l -16.359937792164963 -8.002465381085264 a39.21227653916378,39.21227653916378 0 0,0 0.3009637207498816,-0.6021290491036706 l 16.220154158203336 8.282126286352703" fill="#ffdd14" stroke="none" /><path d="M 81.29705330413844 90.45014215332179 l -16.189246106309763 -8.266344414827257 a39.177572430751354,39.177572430751354 0 0,0 0.3109802476836238,-0.5963456292159888 l 16.0449577896512 8.543036287147732" fill="#ffdc14" stroke="none" /><path d="M 81.46374523516351 90.13048839642627 l -16.062495826874382 -8.552374304135201 a39.197441535182605,39.197441535182605 0 0,0 0.32133437349819505,-0.5912190545919179 l 15.913316103760836 8.826848192201739" fill="#ffdc14" stroke="none" /><path d="M 81.63589988554816 89.8137432299009 l -15.881812275413603 -8.809373549677137 a39.16141578977887,39.16141578977887 0 0,0 0.3311314677519077,-0.5850775751131964 l 15.728247442640326 9.080707894889438" fill="#ffdc14" stroke="none" /><line stroke="#e1ed5e" stroke-width="0.3" x1="26.387840678322718" x2="22.05771365940052" y1="57.49999999999999" y2="54.99999999999999" /><path d="M 25.521815274538284 56.99999999999999 a86.0,86.0 0 0,1 29.574782752854787,-30.34633250058573" fill="none" id="id23" stroke="none" /><text fill="#e1ed5e" style="font-size:6.75px; font-family:Arial;" text-anchor="middle"><textPath startOffset="21.40746469413373" xlink:href="#id23">November</textPath></text><path d="M 81.81346652052679 89.5 l -15.738072750547314 -9.086380539054408 a39.17276107810881,39.17276107810881 0 0,0 0.34122513561862045,-0.5794748792204527 l 15.579773904798914 9.355206586568434" fill="#ffdc14" stroke="none" /><path d="M 81.99639281039701 89.18935116829357 l -15.573637564284658 -9.351521890401006 a39.16560344856034,39.16560344856034 0 0,0 0.35105815525978057,-0.5734271135722335 l 15.410811444569484 9.617486120097782" fill="#ffdc14" stroke="none" /><path d="M 82.18462484594161 88.88188828441811 l -26.994396113654297 -16.846499671824674 a52.81983615189844,52.81983615189844 0 0,0 0.4866525631719801,-0.7650986601486012 l 26.701225858856425 17.307412006651944" fill="#80ff25" stroke="none" /><path d="M 82.37810715431573 88.57770195909679 l -15.258222520567895 -9.890195493217481 a39.18321537520866,39.18321537520866 0 0,0 0.3707022523599761,-0.5612904579160497 l 15.086195829287188 10.150665829472592" fill="#ffdc14" stroke="none" /><path d="M 82.576782715395 88.27688183743585 l -15.110824673467862 -10.167237214987741 a39.212900233024854,39.212900233024854 0 0,0 0.38057102460607883,-0.5552644984031302 l 14.93406391204647 10.425136448460906" fill="#ffdd14" stroke="none" /><path d="M 82.78059297857968 87.97951657250589 l -14.945948137814856 -10.433432561022725 a39.22739369036782,39.22739369036782 0 0,0 0.390190965044689,-0.5488524572886351 l 14.764642074240195 10.688462245020881" fill="#ffdd14" stroke="none" /><path d="M 82.98947788004972 87.6856937992154 l -14.720412357489332 -10.65644334099175 a39.17279077781649,39.17279077781649 0 0,0 0.398999087363836,-0.5413188920025334 l 14.535311250541676 10.907568542263146" fill="#ffdc14" stroke="none" /><path d="M 83.2033758604659 87.39550010848427 l -14.54992057046902 -10.918531648296215 a39.19105609803355,39.19105609803355 0 0,0 0.40842310154528955,-0.5346389504804726 l 14.360345491569424 11.166691512017572" fill="#ffdc14" stroke="none" /><path d="M 83.42222388311158 87.10902102172516 l -25.12729586671691 -19.539137247049393 a52.83015680031378,52.83015680031378 0 0,0 0.5628514071761989,-0.7111443660623236 l 24.78817802889915 19.9676015570264" fill="#80ff25" stroke="none" /><path d="M 83.64595745247003 86.82634096563983 l -14.156627550263293 -11.403577059408176 a39.178329773296944,39.178329773296944 0 0,0 0.4263967565049955,-0.5201347117932948 l 13.958783974519667 11.644914052899965" fill="#ffdc14" stroke="none" /><path d="M 83.8745106332314 86.54754324733833 l -13.980951236198841 -11.663406770998714 a39.207197889152205,39.207197889152205 0 0,0 0.4355834484376949,-0.5131162070006023 l 13.778673224254032 11.901689760448873" fill="#ffdd14" stroke="none" /><path d="M 84.10781606972428 86.27271002978789 l -13.77381843687951 -11.89749631074264 a39.20078275229548,39.20078275229548 0 0,0 0.4442548847242456,-0.5054805080718174 l 13.567552488196672 12.132189096625758" fill="#ffdd14" stroke="none" /><path d="M 84.34580500576568 86.00192230759919 l -13.541350642700667 -12.108759244814635 a39.165633148268014,39.165633148268014 0 0,0 0.452460602369231,-0.49733346143507207 l 13.331492339489571 12.339430281807365" fill="#ffdc14" stroke="none" /><path d="M 84.58840730492382 85.73525988315684 l -13.371455637071337 -12.376419713431657 a39.220087562280995,39.220087562280995 0 0,0 0.46157218292239804,-0.49017366297355747 l 13.157027620412668 12.604134836349726" fill="#ffdd14" stroke="none" /><path d="M 84.83555147118756 85.47280134310135 l -13.137457550624184 -12.585387152185248 a39.192986579032095,39.192986579032095 0 0,0 0.46959393931447296,-0.4818447507047658 l 12.919476810158908 12.809054594957743" fill="#ffdc14" stroke="none" /><path d="M 85.08716467003674 85.21462403516908 l -22.849395656365303 -22.654102849895015 a53.17612869496185,53.17612869496185 0 0,0 0.6482627905770686,-0.6427221162587601 l 22.45714094565826 23.04300497638245" fill="#7cff26" stroke="none" /><path d="M 85.34317274990677 84.96080404539775 l -12.687790668485471 -13.018790959217528 a39.178804968619666,39.178804968619666 0 0,0 0.4856819478213797,-0.465272319442746 l 12.46243623479879 13.234675408965842" fill="#ffdc14" stroke="none" /><path d="M 85.60350026404147 84.71141617570332 l -12.49175544624767 -13.265811395498655 a39.22157254766449,39.22157254766449 0 0,0 0.49413621039818895,-0.4573650993192865 l 12.262189464535528 13.478294240950307" fill="#ffdd14" stroke="none" /><path d="M 85.86807049272753 84.46653392183569 l -12.25859191446256 -13.474339903222104 a39.21622660028389,39.21622660028389 0 0,0 0.5018462668340512,-0.44875402634065226 l 12.025480620805117 13.682789459446157" fill="#ffdd14" stroke="none" /><path d="M 86.13680546590413 84.22622945171909 l -12.017471437041934 -13.67367647854924 a39.20409426970069,39.20409426970069 0 0,0 0.5093181616231461,-0.4399368974315039 l 11.780973795655939 13.877957508445455" fill="#ffdd14" stroke="none" /><path d="M 86.40962598614128 83.9905735841838 l -11.758514661696779 -13.851500705114251 a39.16939016128826,39.16939016128826 0 0,0 0.5163377386605045,-0.4307473057786349 l 11.519002588874365 14.051310194804769" fill="#ffdc14" stroke="none" /><path d="M 86.68645165197937 83.75963576809568 l -11.392989667635923 -13.897594920308258 a38.970624867706654,38.970624867706654 0 0,0 0.5209987100182549,-0.41967968122710747 l 11.152740187262424 14.091122895328764" fill="#ffda14" stroke="none" /><path d="M 86.96720088162412 83.53348406188908 l -19.636197340848895 -24.809693876204975 a52.640182620202495,52.640182620202495 0 0,0 0.7133748802997266,-0.5547246217304571 l 19.207412515913926 25.143119549556236" fill="#82ff25" stroke="none" /><path d="M 87.25179093698888 83.31218511350988 l -10.8918506143846 -14.257782087331247 a38.94203889907426,38.94203889907426 0 0,0 0.53470573915568,-0.40125315510975257 l 10.645491886318167 14.442654269705" fill="#ffd914" stroke="none" /><path d="M 87.54013794807813 83.09580414077388 l -10.866766712496128 -14.742856068476241 a39.31497812828671,39.31497812828671 0 0,0 0.5467009614377065,-0.39576933570495554 l 10.612084740684454 14.927226175554276" fill="#ffde14" stroke="none" /><path d="M 87.83215693770416 82.88440491214696 l -10.632821148552043 -14.956394530111542 a39.35076627602908,39.35076627602908 0 0,0 0.5539180798699067,-0.386677839195209 l 10.37450797750837 15.136717185111877" fill="#ffde14" stroke="none" /><path d="M 88.12776184653039 82.6780497279521 l -10.372577061780138 -15.133899921358271 a39.347350809647025,39.347350809647025 0 0,0 0.560425651462636,-0.37707938930622475 l 10.111255122220513 15.309728984721605" fill="#ffde14" stroke="none" /><path d="M 88.4268655584334 82.4767994020092 l -10.094854829498619 -15.284896851241902 a39.31759170256167,39.31759170256167 0 0,0 0.5663874473846117,-0.36712550049569936 l 9.830981749856981 15.455936193441508" fill="#ffde14" stroke="none" /><path d="M 88.72937992617638 82.28071324371311 l -9.837724251446234 -15.46653652583956 a39.330154678906084,39.330154678906084 0 0,0 0.5727891486218645,-0.3574627920423116 l 9.570770974034671 15.633135114723407" fill="#ffde14" stroke="none" /><path d="M 89.03521579738668 82.08984904055464 l -16.751419520478237 -27.362184868650562 a53.08269341463196,53.08269341463196 0 0,0 0.7812438918174828,-0.4691145100761729 l 16.279242872103318 27.64571337926266" fill="#7dff26" stroke="none" /><line stroke="#e1ed5e" stroke-width="0.3" x1="56.869717070023135" x2="54.33264160355391" y1="26.7553504044142" y2="22.446841604673864" /><path d="M 56.362301976729285 25.89364864446614 a86.0,86.0 0 0,1 42.16139366436587,-11.88097634709845" fill="none" id="id24" stroke="none" /><text fill="#e1ed5e" style="font-size:6.75px; font-family:Arial;" text-anchor="middle"><textPath startOffset="22.145653131862474" xlink:href="#id24">December</textPath></text><path d="M 89.34428304082924 81.90426304109057 l -9.254912842036786 -15.716865322984681 a39.239332972851166,39.239332972851166 0 0,0 0.5833721576313289,-0.33681007224617876 l 8.983748216545058 15.873422292507033" fill="#ffdd14" stroke="none" /><path d="M 89.65649057296885 81.72400993836675 l -9.019851437548 -15.93721322467541 a39.31263185138077,39.31263185138077 0 0,0 0.5901683652393954,-0.32735644373814277 l 8.744938884152502 16.0897025838467" fill="#ffde14" stroke="none" /><path d="M 89.97174638481275 81.54914285379989 l -8.75103034359292 -16.10091018312169 a39.32538787582505,39.32538787582505 0 0,0 0.5958942021723368,-0.3172800987823495 l 8.473347325634021 16.248760749626616" fill="#ffde14" stroke="none" /><path d="M 90.28995756902619 81.37971332152246 l -8.493699096819983 -16.287787954357317 a39.369402842592024,39.369402842592024 0 0,0 0.601925883340391,-0.3073476449253281 l 8.21284599176601 16.431193550955477" fill="#ffdf14" stroke="none" /><path d="M 90.61103034731259 81.2157712731953 l -2.274888673780624 -4.551301235070184 a26.088168767881697,26.088168767881697 0 0,0 0.4023040986190619,-0.19678709435005337 l 2.196424325899509 4.589682079517452" fill="#ff2a04" stroke="none" /><path d="M 90.93487009805054 81.0573650232925 l -3.224421500410226 -6.73780079866074 a28.469595277840764,28.469595277840764 0 0,0 0.44264972236785793,-0.20718242076290963 l 3.108283064170846 6.792159450994193" fill="#ff4c07" stroke="none" /><path d="M 92.25597844496254 80.48000691201159 l -6.761863661499104 -17.044313603249503 a39.336614365324316,39.336614365324316 0 0,0 0.6298124213913108,-0.24362497450594478 l 6.468278977614264 17.157878465893486" fill="#ffde14" stroke="none" /><path d="M 92.592206182469 80.34994680014964 l -6.444182719758119 -17.093960279122413 a39.26830503768327,39.26830503768327 0 0,0 0.6328009724241387,-0.2323732822809252 l 6.149792595679854 17.20206441041206" fill="#ffdd14" stroke="none" /><path d="M 92.93061703081487 80.22567764915836 l -6.172233171619889 -17.26483469521783 a39.33496603154863,39.33496603154863 0 0,0 0.6377775662165777,-0.2218521443637169 l 5.874949833358307 17.36824527215013" fill="#ffde14" stroke="none" /><path d="M 93.27111125876988 80.10723608172694 l -5.869534957632124 -17.35223715422603 a39.31806689788439,39.31806689788439 0 0,0 0.6412163767699827,-0.21078055921986794 l 5.5707958432143805 17.45043863484793" fill="#ffde14" stroke="none" /><path d="M 93.61358852112211 79.99465700312896 l -13.966898037406159 -43.751109173712145 a66.92639540305095,66.92639540305095 0 0,0 1.0974633888180285,-0.3399969632094925 l 13.213794015716514 43.984422724728276" fill="#37ff7b" stroke="none" /><path d="M 93.95794788825049 79.88797359093562 l -8.986625123224389 -29.91355229379451 a52.23427671547633,52.23427671547633 0 0,0 0.8609700902642756,-0.2506158453633935 l 8.471795020578488 30.063411833460425" fill="#87ff25" stroke="none" /><path d="M 94.30408787586887 79.78721728523814 l -4.971489675275841 -17.642063006785104 a39.32915973869915,39.32915973869915 0 0,0 0.6514006306062199,-0.17754213852166068 l 4.667907643734943 17.724805639450906" fill="#ffde14" stroke="none" /><path d="M 94.6519064749342 79.69241777938228 l -4.665158254116222 -17.714365759243687 a39.31836389496109,39.31836389496109 0 0,0 0.6541727725684672,-0.16628816066417781 l 4.360380188322377 17.79183915174313" fill="#ffde14" stroke="none" /><path d="M 95.00130118170881 79.60360301121753 l -4.367534541291775 -17.821031353287207 a39.34841999912315,39.34841999912315 0 0,0 0.6574331132776168,-0.15515242463595807 l 4.060969274274252 17.893379921569398" fill="#ffde14" stroke="none" /><path d="M 95.35216902796891 79.52079915486377 l -4.054583316971124 -17.86524221540362 a39.319566733121725,39.319566733121725 0 0,0 0.6595156745551478,-0.14373837166266082 l 3.747305225796858 17.932212045199993" fill="#ffde14" stroke="none" /><path d="M 95.70440661134978 79.44403061299748 l -3.7429766909926943 -17.911498439214835 a39.298405691406835,39.298405691406835 0 0,0 0.661529739282942,-0.1323244750774682 l 3.4349504661787758 17.97311231095517" fill="#ffde14" stroke="none" /><path d="M 96.05791012581881 79.37332000966035 l -9.067569767811456 -47.44535661546128 a69.30406489998977,69.30406489998977 0 0,0 1.170464030654809,-0.21329753659360895 l 8.251771003605608 47.594022325986245" fill="#3aff96" stroke="none" /><path d="M 96.41257539226777 79.30868818359171 l -5.419691148111947 -31.259338315433272 a52.72568807858448,52.72568807858448 0 0,0 0.8931292103123286,-0.14696407168137068 l 4.882284434746546 31.34776838561031" fill="#81ff25" stroke="none" /><path d="M 96.76829788921471 79.25015418208739 l -2.8238683195201846 -18.131260317769012 a39.34984558509131,39.34984558509131 0 0,0 0.6683381913531594,-0.09822269863929071 l 2.51220502255934 18.177064089707187" fill="#ffde14" stroke="none" /><path d="M 97.12497278360702 79.19773525538626 l -2.5118512744781643 -18.17450454481121 a39.34726171052402,39.34726171052402 0 0,0 0.6698818433037862,-0.08672961611740403 l 2.199491609283584 18.21494575712901" fill="#ffde14" stroke="none" /><path d="M 97.48249496171623 79.15144685158666 l -2.199021631683216 -18.21105366840194 a39.343341349111576,39.343341349111576 0 0,0 0.6712050817357834,-0.07520992940832054 l 1.8860806483466332 18.246119358317234" fill="#ffde14" stroke="none" /><path d="M 97.84075906011542 79.11130261209362 l -1.881319846550772 -18.20006291959351 a39.29703950485401,39.29703950485401 0 0,0 0.6716059350461141,-0.06360178031492539 l 1.5686143481196422 18.229676455413617" fill="#ffde14" stroke="none" /><path d="M 98.1996594967304 79.07731436759882 l -1.5691388593030065 -18.2357720704266 a39.30315764463404,39.30315764463404 0 0,0 0.6727034981294724,-0.05207150522948317 l 1.255866366398317 18.260021342651136" fill="#ffde14" stroke="none" /><path d="M 98.5590905019552 79.04949213459386 l -3.364809277486356 -48.92358842052492 a70.03916236453044,70.03916236453044 0 0,0 1.2001899118469648,-0.07220044476224796 l 2.5244750135069074 48.97414084311187" fill="#3bff9e" stroke="none" /><path d="M 98.9189461498227 79.02784411241856 l -1.826212340137073 -35.42803152211006 a56.47506827397085,56.47506827397085 0 0,0 0.9686126076473431,-0.041596393055919174 l 1.2177739718889098 35.45416048359181" fill="#59ff2a" stroke="none" /><path d="M 99.27912038922189 79.0123766808444 l -0.627016340134342 -18.254896608173926 a39.265661763700635,39.265661763700635 0 0,0 0.673848653039961,-0.017355950996580754 l 0.31355437302363715 18.26297027652055" fill="#ffdd14" stroke="none" /><path d="M 99.63950707515114 79.00309439819443 l -0.3148490989438738 -18.33838157048372 a39.34108417132866,39.34108417132866 0 0,0 0.6753420237927215,-0.005796999039374822 l 4.492270004661966e-15 18.34108417132866" fill="#ffde14" stroke="none" /></svg>