<?xml version="1.0" encoding="utf-8" ?>
<svg baseProfile="full" height="200mm" version="1.1" viewBox="0,0,200,200" width="200mm" xmlns="http://www.w3.org/2000/svg" xmlns:ev="http://www.w3.org/2001/xml-events" xmlns:xlink="http://www.w3.org/1999/xlink"><defs /><rect fill="#1a1a1a" height="200" width="200" x="0" y="0" /><text alignment-baseline="middle" fill="#e1ed5e" style="dominant-baseline: central; font-size:9.0px; font-family:Arial;" text-anchor="middle" x="100.0" y="100.0">2025</text><line stroke="#e1ed5e" stroke-width="0.3" x1="100.0" x2="100.0" y1="15.0" y2="10.0" /><path d="M 100.0 14.0 a86.0,86.0 0 0,1 42.46469731375804,11.215312516191453" fill="none" id="id25" stroke="none" /><text fill="#e1ed5e" style="font-size:6.75px; font-family:Arial;" text-anchor="middle"><textPath startOffset="22.20632615414155" xlink:href="#id25">January</textPath></text><path d="M 100.0 79.0 l 0.0 -35.59767472007175 a56.59767472007175,56.59767472007175 0 0,0 0.9742359325486761,0.008385556248707375 l -0.6127554532761478 35.592400540431605" fill="#6dff28" stroke="none" /><path d="M 100.36148047927253 79.00311137660856 l 0.3158710315438502 -18.347626632645184 a39.350345434337726,39.350345434337726 0 0,0 0.6771507969452807,0.017488807295648726 l -0.6316484636839987 18.339471033207175" fill="#ffb510" stroke="none" /><path d="M 100.72285384407766 79.0124445844662 l 0.6323084891462007 -18.358634410530435 a39.36952017459788,39.36952017459788 0 0,0 0.6770791969280566,0.029156454493646556 l -0.948228518463589 18.345030229512595" fill="#ffb510" stroke="none" /><path d="M 101.08401301168833 79.027996857942 l 2.684536318597189 -51.936741996207914 a73.00607564916366,73.00607564916366 0 0,0 1.2544458456906913,0.07567159915507082 l -3.5781442131274925 51.88283712767254" fill="#3effb6" stroke="none" /><path d="M 101.44485096284872 79.0497635885617 l 2.4609170935463047 -35.68312319015491 a56.76788215068205,56.76788215068205 0 0,0 0.9742715074394405,0.07562221996578453 l -3.0747787903480863 35.63547570800066" fill="#6bff28" stroke="none" /><path d="M 101.80526077348638 79.07773832637324 l 1.5754837337144085 -18.259236240787974 a39.32707988447979,39.32707988447979 0 0,0 0.6739441845399513,0.06399912099334214 l -1.889553045344604 18.229411575279453" fill="#ffb410" stroke="none" /><path d="M 102.16513564639614 79.11191278185805 l 1.889726354230864 -18.23108356804254 a39.32876083533269,39.32876083533269 0 0,0 0.6727714477025797,0.07559371106195147 l -2.203264505443169 18.195853903509988" fill="#ffb410" stroke="none" /><path d="M 102.52436894288641 79.15227682838746 l 2.2025689052284054 -18.1901092278926 a39.32297419921074,39.32297419921074 0 0,0 0.6712717657944298,0.08715034082879318 l -2.5153553995306814 18.149500563899668" fill="#ffb410" stroke="none" /><path d="M 102.88285421437855 79.19881850522331 l 2.5200706404924715 -18.183523298226156 a39.35732212416085,39.35732212416085 0 0,0 0.6702571066124509,0.09877847450460985 l -2.832696727533578 18.137450339560576" fill="#ffb510" stroke="none" /><path d="M 103.2404852339499 79.25152402106235 l 2.836123830336712 -18.159393707622616 a39.379531501359,39.379531501359 0 0,0 0.6688347029747088,0.11036345678770237 l -3.148287739450296 18.107883987895292" fill="#ffb510" stroke="none" /><path d="M 103.59715602781102 79.31037775812273 l 6.201595032661158 -35.669472641958585 a57.20457235632758,57.20457235632758 0 0,0 0.9686773821491531,0.17701959995775224 l -6.8146675359132125 35.557437560650094" fill="#66ff29" stroke="none" /><path d="M 103.95276090670814 79.375362276772 l 6.798141943828633 -35.471210652939114 a57.11677614452352,57.11677614452352 0 0,0 0.9640049546936149,0.19337032502377638 l -7.407713307989374 35.34893637183813" fill="#67ff28" stroke="none" /><path d="M 104.307194497241 79.44645832069477 l 3.75070121294406 -17.89800617461016 a39.286781691023805,39.286781691023805 0 0,0 0.6606863237512868,0.14440044046672987 l -4.058230260848875 17.83079223604756" fill="#ffb410" stroke="none" /><path d="M 104.66035177308747 79.52364482259891 l 4.061927640099764 -17.847037544224502 a39.303442442840236,39.303442442840236 0 0,0 0.6583819082010955,0.15581772620488255 l -4.368533235263383 17.77447390587875" fill="#ffb410" stroke="none" /><path d="M 105.01212808612495 79.60689891045804 l 4.387694839088 -17.852437700322657 a39.383726440655636,39.383726440655636 0 0,0 0.6569413953629631,0.16746898908835653 l -4.694345123135989 17.774265715065432" fill="#ffb510" stroke="none" /><path d="M 105.36241919743992 79.69619591428918 l 4.6743951297415265 -17.69872877129465 a39.30559941517361,39.30559941517361 0 0,0 0.6526640705427769,0.17839774500743844 l -4.978357089508014 17.61564448546092" fill="#ffb410" stroke="none" /><path d="M 105.71112130821622 79.79150937346287 l 4.990772913605975 -17.659577200485444 a39.351252850284865,39.351252850284865 0 0,0 0.6502509373279866,0.18982607966078519 l -5.294014068657388 17.571052791905956" fill="#ffb510" stroke="none" /><path d="M 106.0581310904928 79.89281104454417 l 13.844396814411105 -45.95012860625158 a68.99043281828094,68.99043281828094 0 0,0 1.134119359613766,0.352376405642159 l -14.63330154673559 45.7050120657269" fill="#39ff86" stroke="none" /><path d="M 106.40334571778207 80.00007090966166 l 11.002842510232922 -34.36579558491177 a57.08421330012517,57.08421330012517 0 0,0 0.9332376668909919,0.30767378604916873 l -11.59276299936633 34.17130807460337" fill="#67ff28" stroke="none" /><path d="M 106.74666289553966 80.11325718540242 l 5.900709293606688 -17.393174961096925 a39.36684255377024,39.36684255377024 0 0,0 0.6398386574671189,0.22322714402890464 l -6.19922995513708 17.28902696389581" fill="#ffb510" stroke="none" /><path d="M 107.08798089147638 80.2323363322302 l 6.196829974641121 -17.282333660403644 a39.35973198290573,39.35973198290573 0 0,0 0.6357865114979057,0.23416553780776805 l -6.493398811911603 17.173104854789553" fill="#ffb510" stroke="none" /><path d="M 107.4271985657038 80.35727306442388 l 6.494135375673474 -17.17505284644712 a39.36181457688278,39.36181457688278 0 0,0 0.6316949604081431,0.24508783066832632 l -6.788813501081284 17.060722311888245" fill="#ffb510" stroke="none" /><path d="M 107.76421540070413 80.48803036053334 l 6.785161566977626 -17.05154476803115 a39.35193713116304,39.35193713116304 0 0,0 0.6272251486068545,0.2558608868023096 l -7.077670585172869 16.93222299504526" fill="#ffb510" stroke="none" /><path d="M 108.09893153111575 80.62456947434976 l 7.074291490965365 -16.92413903917953 a39.34317536078815,39.34317536078815 0 0,0 0.6225893424997037,0.26656026484645884 l -7.364564591255384 16.79985924637028" fill="#ffb510" stroke="none" /><path d="M 108.43124777332544 80.76684994638697 l 14.37371743190436 -32.78896215939487 a56.80111440028732,56.80111440028732 0 0,0 0.8920963438204204,0.40025762548796257 l -14.93599589419156 32.53668420339038" fill="#6aff28" stroke="none" /><path d="M 108.76106565485865 80.91482961587045 l 15.089216689496515 -32.87046151998487 a57.168379848140646,57.168379848140646 0 0,0 0.8907971195720286,0.4182411919243807 l -15.652792020368143 32.60585534542049" fill="#66ff29" stroke="none" /><line stroke="#e1ed5e" stroke-width="0.3" x1="143.23703022742887" x2="145.7803849466894" y1="26.81831364943548" y2="22.513508569990506" /><path d="M 143.74570117128098 25.957352633546492 a86.0,86.0 0 0,1 28.547481713284135,27.462654790039103" fill="none" id="id26" stroke="none" /><text fill="#e1ed5e" style="font-size:6.75px; font-family:Arial;" text-anchor="middle"><textPath startOffset="19.985693538727396" xlink:href="#id26">February</textPath></text><path d="M 110.99172775467656 82.1063720568725 l 6.871923350042214 -11.186925515602347 a34.128999696111286,34.128999696111286 0 0,0 0.49792723121815935,0.3118019865088794 l -7.063469733632636 11.066979187770524" fill="#ff6909" stroke="none" /><path d="M 113.06298171725822 83.55741782278167 l 11.34146756897742 -14.275685027316147 a39.232500366579046,39.232500366579046 0 0,0 0.5251486913744154,0.4246337201145817 l -11.585519658916327 14.078345209937437" fill="#ffb310" stroke="none" /><path d="M 113.6212207817346 84.01681056812373 l 11.893796095803276 -13.956223095528268 a39.33680857348688,39.33680857348688 0 0,0 0.5115774458506858,0.44363491987385223 l -12.132267340300727 13.749423182234743" fill="#ffb510" stroke="none" /><path d="M 113.89432698308785 84.25364557470407 l 12.094246693481274 -13.706334619469033 a39.279343855391474,39.279343855391474 0 0,0 0.5031291386447271,0.45171430837945936 l -12.328386819721992 13.496121302320276" fill="#ffb410" stroke="none" /><path d="M 114.16331599549186 84.49514656593476 l 12.36812674670238 -13.539625361928033 a39.338266389270814,39.338266389270814 0 0,0 0.4960220383360509,0.46099842619874565 l -12.599356668833277 13.324722349654646" fill="#ffb510" stroke="none" /><path d="M 114.42810811169701 84.74124197986012 l 12.599745042935334 -13.32513308309237 a39.33883166477887,39.33883166477887 0 0,0 0.48802022978025167,0.4694750743906808 l -12.827248516328003 13.106274921939388" fill="#ffb510" stroke="none" /><path d="M 114.94478906791727 85.2469230424477 l 32.79799272943973 -32.37725929698238 a67.08682291788416,67.08682291788416 0 0,0 0.8041976553834622,0.8287963748423002 l -33.350454648526295 31.80789872658997" fill="#36ff6f" stroke="none" /><path d="M 115.19652480421416 85.50635884689758 l 13.253842580168898 -12.64081365519876 a39.31541735820829,39.31541735820829 0 0,0 0.46285980577708496,0.4937465688363295 l -13.469469707916447 12.410797669484378" fill="#ffb410" stroke="none" /><path d="M 115.4437574822437 85.77008943001954 l 13.49838365713485 -12.43743904300218 a39.354733757360805,39.354733757360805 0 0,0 0.4547464960993513,0.5021424389539912 l -13.710473793850237 12.203243816778642" fill="#ffb510" stroke="none" /><path d="M 115.9244219780498 86.31012108654704 l 13.91853506220802 -11.965461598350098 a39.3547783843746,39.3547783843746 0 0,0 0.43719295741148617,0.517498563817854 l -14.122438633106624 11.724104084903137" fill="#ffb510" stroke="none" /><path d="M 116.15771136456269 86.58626213691792 l 14.133472154904394 -11.733263845574843 a39.36911853147373,39.36911853147373 0 0,0 0.4283763309554449,0.5251387299638509 l -14.333346977936248 11.488240946002891" fill="#ffb510" stroke="none" /><path d="M 116.38621287248628 86.86637796730983 l 40.79326058946434 -32.69597863961894 a73.27922272492546,73.27922272492546 0 0,0 0.7804094828416971,0.9910407913851518 l -41.3500241529 31.98894545428075" fill="#3effb9" stroke="none" /><path d="M 116.60985879189232 87.15038557335679 l 28.467668234692 -22.02297834223288 a56.991939511270445,56.991939511270445 0 0,0 0.5935956373527059,0.781102278257661 l -28.84253981226882 21.529691288094185" fill="#68ff28" stroke="none" /><path d="M 116.82858285166822 87.43820079747576 l 14.713156265508333 -10.982726012746562 a39.3602080043862,39.3602080043862 0 0,0 0.4006070490370361,0.5464275646752603 l -14.900025927058996 10.727836004399808" fill="#ffb510" stroke="none" /><path d="M 117.04232023915458 87.72973835380427 l 14.896283548698321 -10.72514153785886 a39.35559654629415,39.35559654629415 0 0,0 0.39109601615721334,0.55317757924284 l -15.078692184659417 10.467137458284228" fill="#ffb510" stroke="none" /><path d="M 117.2510076193507 88.02491185347247 l 15.080989547509226 -10.468732212819038 a39.35839317249191,39.35839317249191 0 0,0 0.3815431390719103,0.5598674766374915 l -15.25895715224987 10.20758671291114" fill="#ffb510" stroke="none" /><path d="M 117.45458315368197 88.32363383020206 l 15.239570053717694 -10.194617576986294 a39.335068119948915,39.335068119948915 0 0,0 0.37162904111538514,0.5660165256217257 l -15.412795730191004 9.930782987386895" fill="#ffb410" stroke="none" /><path d="M 117.65298651832404 88.62581576622439 l 15.395326576194442 -9.919527250248091 a39.314286807192175,39.314286807192175 0 0,0 0.36163977544862974,0.5720272767798057 l -15.563793947889028 9.653052325754079" fill="#ffb410" stroke="none" /><line stroke="#e1ed5e" stroke-width="0.3" x1="172.23445277983987" x2="176.4835382374775" y1="55.19839476539836" y2="52.563006222186495" /><path d="M 173.08426987136738 54.67131705675599 a86.0,86.0 0 0,1 12.851231095245387,41.99856678651699" fill="none" id="id27" stroke="none" /><text fill="#e1ed5e" style="font-size:6.75px; font-family:Arial;" text-anchor="middle"><textPath startOffset="22.20632615414155" xlink:href="#id27">March</textPath></text><path d="M 117.84615892207809 88.93136811851018 l 43.765167555735 -27.144246054362945 a72.49951441558801,72.49951441558801 0 0,0 0.6486434947909121,1.066199356112921 l -44.22592684881213 26.386878925042943" fill="#3dffb0" stroke="none" /><path d="M 118.03404312379186 89.2402003453031 l 30.95253815017237 -18.467467722800432 a57.043126696092166,57.043126696092166 0 0,0 0.4958414722064299,0.847553805375518 l -31.265839296849126 17.931934505071016" fill="#68ff28" stroke="none" /><path d="M 118.21658344932153 89.55222093294921 l 15.895864366142279 -9.11677425348634 a39.32468490140617,39.32468490140617 0 0,0 0.33171749708890175,0.590088413288158 l -16.050439504523613 8.841802330263388" fill="#ffb410" stroke="none" /><path d="M 118.3937258080291 89.86733742301442 l 16.042882407823495 -8.837639306864913 a39.31605701207267,39.31605701207267 0 0,0 0.3214404076018077,0.5955802569488357 l -16.192630914643768 8.56017806658362" fill="#ffb410" stroke="none" /><path d="M 118.56541770881063 90.18545643968196 l 16.165053062863986 -8.54559913106825 a39.28486272943067,39.28486272943067 0 0,0 0.31089398120148104,0.6005482161145318 l -16.309756477225584 8.266078192693373" fill="#ffb410" stroke="none" /><path d="M 118.73160827565052 90.50648371742162 l 16.365618214831834 -8.294389926941383 a39.34748930545491,39.34748930545491 0 0,0 0.30098953201638995,0.6067765299148422 l -16.50596775980163 8.011453808527591" fill="#ffb510" stroke="none" /><path d="M 118.89224826269711 90.83032412892265 l 16.463919589515292 -7.9910450097898105 a39.30074994634133,39.30074994634133 0 0,0 0.2901552026216316,0.611140855523447 l -16.59903298597868 7.706461738625823" fill="#ffb410" stroke="none" /><path d="M 119.04729006885535 91.15688171328212 l 47.246798556544505 -21.93535283989944 a73.09049508359064,73.09049508359064 0 0,0 0.5199786008328724,1.1457039211597835 l -47.61737947434073 21.118826909897596" fill="#3effb7" stroke="none" /><path d="M 119.196687751892 91.48605970444005 l 16.42960350582503 -7.286708266353404 a38.97297940569568,38.97297940569568 0 0,0 0.26670377170039755,0.6155890765179987 l -16.552597987368106 7.002820045248803" fill="#ffaf10" stroke="none" /><path d="M 119.34039704204932 91.81776055985345 l 16.893976234952955 -7.147245134109381 a39.34365138226862,39.34365138226862 0 0,0 0.25850336426014053,0.6259864008588569 l -17.014501286099293 6.855384162797222" fill="#ffb510" stroke="none" /><path d="M 119.47837535516314 92.15188598940014 l 17.027291851491142 -6.86053766321114 a39.35744112953097,39.35744112953097 0 0,0 0.24777655130834514,0.6305642967993466 l -17.14286195268119 6.566424361516009" fill="#ffb510" stroke="none" /><path d="M 119.61058180528143 92.48833698450437 l 17.076099616920157 -6.54085162872594 a39.28594865343298,39.28594865343298 0 0,0 0.23645541172165158,0.6335829451795891 l -17.18615961714343 6.245945546517017" fill="#ffb410" stroke="none" /><path d="M 119.7369772167798 92.82701384747503 l 17.222286494667898 -6.259075094642383 a39.324387387980885,39.324387387980885 0 0,0 0.22573494041250838,0.6381830743401519 l -17.327474515890216 5.961694393875617" fill="#ffb410" stroke="none" /><path d="M 119.85752413597 93.16781622104841 l 17.268325383749804 -5.94134353148302 a39.261835190312965,39.261835190312965 0 0,0 0.214374679733716,0.6409530062795473 l -17.36803735725529 5.643217422281159" fill="#ffb310" stroke="none" /><path d="M 119.97218684219823 93.5106431181261 l 49.078477165757995 -15.946563892271719 a72.60416476293491,72.60416476293491 0 0,0 0.3759668939789909,1.191917796131936 l -49.34569954350519 15.099395929713365" fill="#3effb1" stroke="none" /><path d="M 120.08093135843002 93.85539295169968 l 18.878067779292824 -5.776540254256555 a40.74208348651733,40.74208348651733 0 0,0 0.19943075818079417,0.6723813742450662 l -18.97470443458532 5.4507294932649595" fill="#ffc812" stroke="none" /><path d="M 120.18372546131832 94.20196356495316 l 17.6250107903406 -5.063012520970643 a39.33780524346161,39.33780524346161 0 0,0 0.18135333164052256,0.6524244245049697 l -17.709550892547487 4.7588767930467215" fill="#ffb510" stroke="none" /><path d="M 120.28053869075195 94.5502522615342 l 17.735266085960575 -4.76578693085342 a39.364432695025364,39.364432695025364 0 0,0 0.17021118488347092,0.6558931288681464 l -17.814673602714347 4.459797376436423" fill="#ffb510" stroke="none" /><path d="M 120.37134235888165 94.90015583598534 l 17.77787620509605 -4.4505853672232565 a39.326499733300466,39.326499733300466 0 0,0 0.1587427265683577,0.6580910854011529 l -17.851851731925226 4.143909050162697" fill="#ffb410" stroke="none" /><path d="M 120.45610955862082 95.25157060432595 l 17.831579664913512 -4.139203342137735 a39.3056886692012,39.3056886692012 0 0,0 0.14731325338174028,0.6603764296841339 l -17.90018730529729 3.8316487429036377" fill="#ffb410" stroke="none" /><path d="M 120.6074358757038 95.95851677861258 l 34.974955682565756 -6.8592083659719725 a56.641215809863425,56.641215809863425 0 0,0 0.1794023555456428,0.9583745569723122 l -35.08784376202126 6.256155731537097" fill="#6cff28" stroke="none" /><path d="M 120.67395015179393 96.31383870115 l 35.05171526524717 -6.24971402757552 a56.60451752885349,56.60451752885349 0 0,0 0.16277340205301752,0.9606978329908883 l -35.15410052882041 5.645430406268793" fill="#6dff28" stroke="none" /><path d="M 120.78858239683441 97.02765380044208 l 18.098556171609008 -2.5877269371844767 a39.282616503069704,39.282616503069704 0 0,0 0.08994596994972681,0.6702019508932281 l -18.14041814061657 2.275806644226584" fill="#ffb410" stroke="none" /><path d="M 120.83666639777658 97.38593545837742 l 18.140669060130524 -2.2758381233409346 a39.282869389481206,39.282869389481206 0 0,0 0.07839672329139429,0.6716552490885808 l -18.17715613642551 1.9632391359275012" fill="#ffb410" stroke="none" /><path d="M 120.87857604477298 97.74499172005257 l 18.16119809463598 -1.9615155741151458 a39.26681854018663,39.26681854018663 0 0,0 0.06679636302713428,0.6726302600139946 l -18.192271583345345 1.6486097833967162" fill="#ffb410" stroke="none" /><path d="M 120.96714384426684 98.82574320788733 l 62.90143153280055 -3.5227703763380056 a84.0,84.0 0 0,0 0.0684255670660141,1.444355573508001 l -62.95275070810006 2.4395036962070047" fill="#4dd2ff" stroke="none" /><line stroke="#e1ed5e" stroke-width="0.3" x1="184.98032266829074" x2="189.97916517819016" y1="98.17113171792111" y2="98.06355123074" /><path d="M 185.9800911702706 98.14961562048488 a86.0,86.0 0 0,1 -9.607161424134198,41.387399972396054" fill="none" id="id28" stroke="none" /><text fill="#e1ed5e" style="font-size:6.75px; font-family:Arial;" text-anchor="middle"><textPath startOffset="21.466115282336823" xlink:href="#id28">April</textPath></text><path d="M 120.99513854157772 99.54816195383933 l 16.050613655994493 -0.34542653289199465 a37.05433020165035,37.05433020165035 0 0,0 0.00823487120518666,0.6377998499881783 l -16.054181534317394 0.06909042484335358" fill="#ff940d" stroke="none" /><path d="M 120.99980553446 99.90962569577887 l 16.089005158269046 -0.06924029103044396 a37.08915414808094,37.08915414808094 0 0,0 -0.002747604649438575,0.6384465564749404 l -16.087813256330104 -0.20771574364818118" fill="#ff940d" stroke="none" /><path d="M 120.99824983174949 100.27111621757518 l 18.25027298313455 0.23563606588872496 a39.25179411220931,39.25179411220931 0 0,0 -0.014537999719321784,0.6755237209839072 l -18.243512920730222 -0.5497496026627471" fill="#ffb310" stroke="none" /><path d="M 120.92983693683757 101.71520430193887 l 18.218448683343535 1.4930054950081662 a39.27952236344665,39.27952236344665 0 0,0 -0.06102429881671881,0.6733980523696873 l -18.190049788249738 -1.8063849359264241" fill="#ffb410" stroke="none" /><path d="M 120.89721153311464 102.0752229133903 l 18.134583473771972 1.8008767863561728 a39.22378322321795,39.22378322321795 0 0,0 -0.07250366624509398,0.6712939028580068 l -18.100897506025824 -2.112767011098971" fill="#ffb310" stroke="none" /><path d="M 120.8583938346157 102.4346265915055 l 18.163131332332807 2.1200310473243618 a39.28643955058472,39.28643955058472 0 0,0 -0.08418240413529746,0.6710165887645826 l -18.123947418950664 -2.432365390376339" fill="#ffb410" stroke="none" /><path d="M 120.81339534386255 102.79330883721812 l 18.104058454985307 2.4296961469449005 a39.26637227004869,39.26637227004869 0 0,0 -0.09567148573011672,0.6691261483685628 l -18.059552918238587 -2.7409677672938724" fill="#ffb410" stroke="none" /><path d="M 120.76222939487914 103.15116336523771 l 17.949616278166275 2.724282260833827 a39.15517662734531,39.15517662734531 0 0,0 -0.1068717158073008,0.6654902763490813 l -17.900062807997685 -3.0328517668761132" fill="#ffb210" stroke="none" /><path d="M 120.70491114924044 103.5080841355445 l 31.40790676663347 5.321519066877504 a52.855535981061145,52.855535981061145 0 0,0 -0.15970818095558806,0.8957282940764462 l -31.31165214333869 -5.861366111687168" fill="#99ff23" stroke="none" /><path d="M 120.64145759157962 103.86396538481128 l 30.68908973009802 5.744825910784503 a52.22215964995421,52.22215964995421 0 0,0 -0.17300472128585156,0.882147346604167 l -30.585655075836502 -6.272236984456615" fill="#a0ff22" stroke="none" /><path d="M 120.5718875245553 104.21870165774334 l 17.84339296059652 3.659166003740903 a39.214723939417766,39.214723939417766 0 0,0 -0.1412961801443638,0.6600887137140051 l -17.777762741727713 -3.965768536871077" fill="#ffb310" stroke="none" /><path d="M 120.49622156327973 104.57218783832717 l 17.715041473446853 3.9517770107181796 a39.150461039554415,39.150461039554415 0 0,0 -0.15238745375862467,0.6564811624419522 l -17.644393453757676 -4.256126830508697" fill="#ffb210" stroke="none" /><path d="M 120.32669344350535 105.2749913415812 l 17.76121514632831 4.60922266443577 a39.349542148089434,39.349542148089434 0 0,0 -0.1757836306658374,0.6541562828232826 l -17.679243439320697 -4.914269880434601" fill="#ffb510" stroke="none" /><path d="M 120.23288151984713 105.62410040840565 l 17.651940462773037 4.906680517476006 a39.32120399433025,39.32120399433025 0 0,0 -0.18688312786370845,0.6505646848566389 l -17.56486469802323 -5.209802677837226" fill="#ffb410" stroke="none" /><path d="M 120.13307415673323 105.97154293290107 l 49.523034609203464 14.688711968882405 a72.65548582879802,72.65548582879802 0 0,0 -0.36595263005937645,1.1959543689115106 l -49.26285520663796 -15.538993310345973" fill="#3effb2" stroke="none" /><path d="M 120.02730092923936 106.31721596034902 l 27.93499359727723 8.811541207099134 a50.291758665609784,50.291758665609784 0 0,0 -0.2675228168080678,0.8233505691089472 l -27.779178529452913 -9.291090676185876" fill="#b8ff1f" stroke="none" /><path d="M 119.9155931802556 106.66101706037122 l 17.341409006689066 5.800049247789894 a39.285651140007694,39.285651140007694 0 0,0 -0.22001679935382967,0.6394718065031226 l -17.239001376392004 -6.0976937573823164" fill="#ffb410" stroke="none" /><path d="M 119.79798401119884 107.00284435728193 l 17.18475575203152 6.078506265148503 a39.22811204355597,39.22811204355597 0 0,0 -0.23065333923561135,0.6346589279089743 l -17.077578151790682 -6.373412990063609" fill="#ffb310" stroke="none" /><path d="M 119.67450827220406 107.3425965602758 l 17.164529465921852 6.405863530184756 a39.32092135657622,39.32092135657622 0 0,0 -0.24211524109805493,0.6320864943041647 l -17.051719945230293 -6.700373591322064" fill="#ffb410" stroke="none" /><path d="M 119.54520255179757 107.68017299344265 l 17.049490877169248 6.699497692068649 a39.31852637350261,39.31852637350261 0 0,0 -0.2529442916339033,0.627786988024973 l -16.931643971277953 -6.991984047936435" fill="#ffb410" stroke="none" /><path d="M 119.41010516605496 108.01547362559984 l 16.92237684539087 6.988157154547782 a39.30850017107022,39.30850017107022 0 0,0 -0.26364588951891416,0.6231810030859641 l -16.799579974679645 -7.278412683299909" fill="#ffb410" stroke="none" /><path d="M 119.26925614724726 108.34839909993367 l 31.122645290929736 13.48387617814039 a54.918047801907065,54.918047801907065 0 0,0 -0.38327283402493345,0.8641790596530612 l -30.88593137217353 -14.017603574286138" fill="#80ff25" stroke="none" /><path d="M 119.12269723197855 108.67885076344098 l 16.62282321370951 7.544281028389246 a39.254709743777184,39.254709743777184 0 0,0 -0.28455063007560416,0.612896742370414 l -16.490497966794074 -7.829297838038491" fill="#ffb310" stroke="none" /><path d="M 118.97047184881838 109.00673069616215 l 16.49978364134381 7.83370645637272 a39.26498883262107,39.26498883262107 0 0,0 -0.29513574363280226,0.6080670482032619 l -16.362494641096294 -8.116562460541259" fill="#ffb310" stroke="none" /><path d="M 118.81262510543309 109.33194174019688 l 16.388227554141334 8.129327188695678 a39.293713753833146,39.293713753833146 0 0,0 -0.3057824271756661,0.603337738403972 l -16.2458664571794 -8.410219138802344" fill="#ffb410" stroke="none" /><path d="M 118.64920377521936 109.65438752849418 l 16.23449226076637 8.404330903501785 a39.280905800874265,39.280905800874265 0 0,0 -0.31601954808152166,0.5977898898940658 l -16.087420204459956 -8.682535808481985" fill="#ffb410" stroke="none" /><line stroke="#e1ed5e" stroke-width="0.3" x1="174.80103733775053" x2="179.2010983576182" y1="140.37084112569926" y2="142.7455964860345" /><path d="M 175.68104954172406 140.8457921977663 a86.0,86.0 0 0,1 -30.038265399797805,32.042727171017184" fill="none" id="id29" stroke="none" /><text fill="#e1ed5e" style="font-size:6.75px; font-family:Arial;" text-anchor="middle"><textPath startOffset="22.206326154141568" xlink:href="#id29">May</textPath></text><path d="M 118.48025628344425 109.97397251340804 l 5.5941320709055 3.0192070204984733 a27.356880104214703,27.356880104214703 0 0,0 -0.22722310733246143,0.4124759412214715 l -5.54133255412153 -3.11505348011775" fill="#ff0000" stroke="none" /><path d="M 118.12598468904814 110.60418214915192 l 6.3573793594312145 3.7192356649953457 a28.365391113273986,28.365391113273986 0 0,0 -0.2501815667846617,0.4193186963479279 l -6.2924169169483255 -3.828116455229378" fill="#ff1001" stroke="none" /><path d="M 117.94076556474637 110.91462005526583 l 6.375010210716119 3.8783637212858393 a28.46206810082305,28.46206810082305 0 0,0 -0.25823954292310947,0.41636436845258396 l -6.307306028125047 -3.987524421103697" fill="#ff1202" stroke="none" /><path d="M 117.75023020441432 111.22182372390056 l 15.507695094346616 9.804076832168443 a39.346894278604324,39.346894278604324 0 0,0 -0.3668538352841948,0.5693652991162866 l -15.336636395685371 -10.069563731206182" fill="#ffb510" stroke="none" /><path d="M 117.55443506779139 111.5257021239791 l 15.246818732812951 10.01059221638718 a39.23944730505964,39.23944730505964 0 0,0 -0.3755717644626971,0.5614288296255645 l -15.072243862939532 -10.27155796021855" fill="#ffb310" stroke="none" /><path d="M 117.35343817320211 111.8261652097733 l 15.110695032560988 10.297761982724856 a39.28597840477552,39.28597840477552 0 0,0 -0.38563694998134923,0.5555387886109593 l -14.931197175417504 -10.556342033522833" fill="#ffb410" stroke="none" /><path d="M 117.14729908036423 112.12312394758627 l 14.92950880474115 10.555148357079508 a39.283910686469724,39.283910686469724 0 0,0 -0.39512170340449576,0.5487894877080667 l -14.745607308961052 -10.810571450238706" fill="#ffb410" stroke="none" /><path d="M 116.93607887273984 112.41649034213515 l 14.692928786858852 10.771950801041521 a39.21859161394658,39.21859161394658 0 0,0 -0.4038370748858235,0.5410057559211577 l -14.505330445277936 -11.023269436471995" fill="#ffb310" stroke="none" /><path d="M 116.71984013943494 112.70617746262583 l 35.62031683501904 27.069521191965553 a65.73886396623648,65.73886396623648 0 0,0 -0.6924280263409657,0.895056564282969 l -35.14908199146 -27.678655750361774" fill="#34ff5e" stroke="none" /><path d="M 116.498646956653 112.99209946851258 l 28.04819418932767 22.08695838981856 a56.70062924089449,56.70062924089449 0 0,0 -0.6104284117421442,0.7616033013074056 l -27.66384786553067 -22.566489524704217" fill="#6cff28" stroke="none" /><path d="M 116.27256486870786 113.27417163493432 l 14.202987023100029 11.585935529802278 a39.329177354128106,39.329177354128106 0 0,0 -0.4324411605697356,0.5209032356203218 l -14.00144986263675 -11.82870002253637" fill="#ffb410" stroke="none" /><path d="M 116.0416608686014 113.55231037782055 l 13.984268468536067 11.814184843124252 a39.30668533917593,39.30668533917593 0 0,0 -0.4410911821010125,0.5130886955961879 l -13.778834776864276 -12.053150637881968" fill="#ffb410" stroke="none" /><path d="M 115.80600337817218 113.82643327865902 l 13.779932026445502 12.054110466104314 a39.30814315495987,39.30814315495987 0 0,0 -0.4498744925738501,0.5054387614934721 l -13.570398684223314 -12.289523397338652" fill="#ffb410" stroke="none" /><path d="M 115.56566222782051 114.09645910891815 l 13.56601026658624 12.285549191238811 a39.30222263779653,39.30222263779653 0 0,0 -0.45843907661333866,0.4975450748465134 l -13.352524781977179 -12.517245520886659" fill="#ffb410" stroke="none" /><path d="M 115.07121518719521 114.62390073753431 l 23.13757109606907 22.45084678400954 a53.239536559087234,53.239536559087234 0 0,0 -0.6438418774704169,0.652208422661387 l -22.747688593543117 -22.845795700651593" fill="#94ff23" stroke="none" /><path d="M 114.81725581225074 114.88116024355365 l 24.111962551326208 24.215953551681732 a55.173076310068495,55.173076310068495 0 0,0 -0.6787603282038159,0.6643098412593286 l -23.691552270746598 -24.627413495863635" fill="#7dff26" stroke="none" /><path d="M 114.55890576462653 115.13401014063108 l 12.694372971343897 13.195824767549064 a39.31056788937601,39.31056788937601 0 0,0 -0.4916894054422124,0.46492302255090423 l -12.465347731510878 -13.41238242684589" fill="#ffb410" stroke="none" /><path d="M 114.29624159901734 115.38237550388516 l 12.473054349170605 13.42067454235651 a39.32188827520842,39.32188827520842 0 0,0 -0.4997633188793699,0.45652194252238315 l -12.24019148082437 -13.633389251465477" fill="#ffb410" stroke="none" /><path d="M 114.0293411484842 115.62618273729858 l 12.143465915426173 13.525654230676986 a39.177103366789424,39.177103366789424 0 0,0 -0.5056787361208258,0.4462026903681419 l -11.90884482639876 -13.732680062817417" fill="#ffb210" stroke="none" /><path d="M 113.75828350139079 115.86535959552629 l 11.968090095336699 13.800998723058651 a39.26753257240733,39.26753257240733 0 0,0 -0.5144692314430745,0.43844184020740506 l -11.728755387316577 -14.004964953489003" fill="#ffb410" stroke="none" /><path d="M 113.48314897796784 116.09983520530334 l 11.711420331667393 13.984265668797963 a39.24053322906197,39.24053322906197 0 0,0 -0.5215811902888496,0.4292258105410772 l -11.468969012833853 -14.18378659819622" fill="#ffb310" stroke="none" /><path d="M 113.20401910651253 116.32954008644616 l 32.340517392858104 39.99583542882119 a72.43516226169706,72.43516226169706 0 0,0 -0.9762966639036307,0.7756291155329249 l -31.64726323623712 -40.546598458359234" fill="#3dffaf" stroke="none" /><path d="M 112.92097659922987 116.55440617244103 l 14.654529816127322 18.775441390148377 a44.81748188887023,44.81748188887023 0 0,0 -0.6122308578657152,0.46943251494836935 l -14.329170229768113 -19.02491324692412" fill="#feff18" stroke="none" /><path d="M 112.63410532772338 116.77436683061366 l 11.027658986517734 14.641479734766065 a39.32981700799249,39.32981700799249 0 0,0 -0.5442779015814376,0.4026437797430385 l -10.773996114517733 -14.829133463248873" fill="#ffb410" stroke="none" /><path d="M 112.34349029814194 116.9893568818739 l 10.756412533441026 14.804931740157757 a39.29990203307924,39.29990203307924 0 0,0 -0.5507089136452992,0.3929161876573819 l -10.499976291946842 -14.987892189659357" fill="#ffb410" stroke="none" /><path d="M 112.04921762599082 117.19931262002967 l 10.46144818410834 14.93289633914511 a39.23275325299054,39.23275325299054 0 0,0 -0.556438354937734,0.3827233744019846 l -10.202852944547724 -15.11076050291219" fill="#ffb310" stroke="none" /><path d="M 111.7513745106137 117.40417183066458 l 10.232037820831167 15.153984263778204 a39.284907356444464,39.284907356444464 0 0,0 -0.563692216388249,0.3735844638250563 l -9.969670905702955 -15.32786674869458" fill="#ffb410" stroke="none" /><path d="M 111.45004920935366 117.60387380957326 l 9.952402975194499 15.30131817549063 a39.253237052321985,39.253237052321985 0 0,0 -0.569579793257534,0.36353277279215573 l -9.687541379890034 -15.470365377106596" fill="#ffb310" stroke="none" /><path d="M 111.1453310114006 117.79835938074945 l 8.503888643308962 13.580149934772232 a37.02300203796696,37.02300203796696 0 0,0 -0.5430407004115404,0.3335799513438005 l -8.268868742965113 -13.724518352944411" fill="#ff930d" stroke="none" /><line stroke="#e1ed5e" stroke-width="0.3" x1="143.8653032363475" x2="146.44561519142675" y1="172.8068346515853" y2="177.08958963109032" /><path d="M 144.38136562736335 173.6633856474863 a86.0,86.0 0 0,1 -40.68145358897372,12.25698825130547" fill="none" id="id30" stroke="none" /><text fill="#e1ed5e" style="font-size:6.75px; font-family:Arial;" text-anchor="middle"><textPath startOffset="21.466115282336833" xlink:href="#id30">June</textPath></text><path d="M 109.89434966115114 118.52300852407294 l 8.633828489983369 16.16321276205429 a39.32464027439238,39.32464027439238 0 0,0 -0.5998114302267069,0.3137929914557106 l -8.354326157230167 -16.30943517245472" fill="#ffb410" stroke="none" /><path d="M 109.2508944713604 118.85261126421891 l 8.04238788362809 16.389767808453666 a39.25662870537033,39.25662870537033 0 0,0 -0.6092018091475531,0.2924538895238 l -7.759073406480304 -16.525775974477025" fill="#ffb310" stroke="none" /><path d="M 108.92500713936063 119.00905698771935 l 23.533552413344136 50.12328079558111 a76.37302020753687,76.37302020753687 0 0,0 -1.1948086380036886,0.548478044044456 l -22.66727577957303 -50.52094590995964" fill="#43ffdc" stroke="none" /><path d="M 108.59647513512805 119.15986991738527 l 14.603894988948278 32.549239528654304 a56.67529597273077,56.67529597273077 0 0,0 -0.893524702582087,0.3916949713414896 l -14.041449611708439 -32.795799053290246" fill="#6cff28" stroke="none" /><path d="M 108.2653958097858 119.30500536409082 l 6.335192765795818 14.796742121102008 a37.09590770283509,37.09590770283509 0 0,0 -0.5891687597496894,0.2462725893583714 l -6.079552546548667 -14.903599753480353" fill="#ff940d" stroke="none" /><path d="M 107.93186726928326 119.44442032107085 l 6.917879022230232 16.95869873661138 a39.31541735820829,39.31541735820829 0 0,0 -0.6288200036780921,0.2502204568293787 l -6.624937942510274 -17.07526603784683" fill="#ffb410" stroke="none" /><path d="M 107.59598834532513 119.57807347666477 l 6.6203696988771075 17.06349174259472 a39.302787913304584,39.302787913304584 0 0,0 -0.6328306190776867,0.23928239097161658 l -6.325668859039146 -17.174922383672968" fill="#ffb410" stroke="none" /><path d="M 107.2578585660854 119.70592522655815 l 6.344573107139485 17.226249603146538 a39.35748575654476,39.35748575654476 0 0,0 -0.6377420259879051,0.22867160074479864 l -6.047111520521845 -17.332908744931295" fill="#ffb510" stroke="none" /><path d="M 106.91757812671514 119.82793768551818 l 6.029407198025921 17.28216263165535 a39.30373995626553,39.30373995626553 0 0,0 -0.6407076093235315,0.2173628077263607 l -5.731029855765162 -17.383388426279833" fill="#ffb410" stroke="none" /><path d="M 106.57524785965236 119.94407469862006 l 14.365525394962729 43.573583487270675 a66.88055686012831,66.88055686012831 0 0,0 -1.0964546740654215,0.3510501617383608 l -13.613349375806367 -43.81440649566874" fill="#36ff6c" stroke="none" /><path d="M 106.2309692047433 120.05430185196036 l 10.579319289078564 34.04941598009205 a56.65507993548209,56.65507993548209 0 0,0 -0.9337971900361264,0.28134543330273154 l -9.991647124602192 -34.226476782500505" fill="#6cff28" stroke="none" /><path d="M 105.88484417918355 120.15858648285463 l 5.110227153184372 17.505128917243688 a39.23578788992853,39.23578788992853 0 0,0 -0.6499479857983282,0.18368179294156173 l -4.808147999281438 -17.59049950352377" fill="#ffb310" stroke="none" /><path d="M 105.53697534728816 120.25689768951611 l 4.809858079001874 17.596755791075193 a39.24227368259993,39.24227368259993 0 0,0 -0.653121414184549,0.17249530161429888 l -4.506246222005828 -17.676942441993077" fill="#ffb310" stroke="none" /><path d="M 105.18746579009965 120.34920634021253 l 4.508476716802239 17.685692147666234 a39.251303215057575,39.251303215057575 0 0,0 -0.6561448125330571,0.16126443099664944 l -4.203378619525971 -17.760677836976914" fill="#ffb310" stroke="none" /><path d="M 104.83641907484287 120.43548508189849 l 4.201001009226099 17.750631639767427 a39.2409794991999,39.2409794991999 0 0,0 -0.6586502186455117,0.1499066453827113 l -3.894830641187725 -17.820315018727822" fill="#ffb310" stroke="none" /><path d="M 104.48393922423573 120.51570834832081 l 3.822097304386396 17.48753264805004 a38.90034150291032,38.90034150291032 0 0,0 -0.655393951287753,0.1373441747683768 l -3.520511891669265 -17.550732803544957" fill="#ffae10" stroke="none" /><path d="M 104.13013068566511 120.58985236759428 l 9.788095598924723 48.796384105047885 a70.7684027991763,70.7684027991763 0 0,0 -1.1964321361305732,0.2292990664219079 l -8.946695848222445 -48.95764036981826" fill="#3bff9c" stroke="none" /><path d="M 103.7750983002368 120.6578951692458 l 5.806290681284691 31.772879717760937 a53.29905411981716,53.29905411981716 0 0,0 -0.9039291878257025,0.1571596759326143 l -5.258512521986938 -31.868117972214556" fill="#93ff23" stroke="none" /><line stroke="#e1ed5e" stroke-width="0.3" x1="102.19456741930631" x2="102.32365962044197" y1="184.97166512339345" y2="189.96999836594603" /><path d="M 102.22038585953345 185.97133177190398 a86.0,86.0 0 0,1 -42.740103519485714,-10.115201625700543" fill="none" id="id31" stroke="none" /><text fill="#e1ed5e" style="font-size:6.75px; font-family:Arial;" text-anchor="middle"><textPath startOffset="22.20632615414155" xlink:href="#id31">July</textPath></text><line stroke="#e1ed5e" stroke-width="0.3" x1="58.666819895761336" x2="56.23545636021788" y1="174.27360380694188" y2="178.64263932499728" /><path d="M 58.180547188652646 175.14741091055294 a86.0,86.0 0 0,1 -31.652253787137756,-30.449443065178592" fill="none" id="id32" stroke="none" /><text fill="#e1ed5e" style="font-size:6.75px; font-family:Arial;" text-anchor="middle"><textPath startOffset="22.20632615414155" xlink:href="#id32">August</textPath></text><line stroke="#e1ed5e" stroke-width="0.3" x1="26.63291911575756" x2="22.317208475507996" y1="142.92168965132927" y2="145.44649492493687" /><path d="M 25.769776987707644 143.4266507060508 a86.0,86.0 0 0,1 -11.730757126820373,-40.83630448921669" fill="none" id="id33" stroke="none" /><text fill="#e1ed5e" style="font-size:6.75px; font-family:Arial;" text-anchor="middle"><textPath startOffset="21.46611528233685" xlink:href="#id33">September</textPath></text><line stroke="#e1ed5e" stroke-width="0.3" x1="15.007084014347285" x2="10.007500721073583" y1="101.09737516637583" y2="101.16192664675087" /><path d="M 14.007167355692545 101.11028546245083 a86.0,86.0 0 0,1 10.666146001902534,-42.60595125391555" fill="none" id="id34" stroke="none" /><text fill="#e1ed5e" style="font-size:6.75px; font-family:Arial;" text-anchor="middle"><textPath startOffset="22.20632615414155" xlink:href="#id34">October</textPath></text><line stroke="#e1ed5e" stroke-width="0.3" x1="26.266209847984243" x2="21.928928074336255" y1="57.711370442889674" y2="55.22380399835377" /><path d="M 25.398753493254645 57.213857153982495 a86.0,86.0 0 0,1 29.58750427330803,-30.492523968695096" fill="none" id="id35" stroke="none" /><text fill="#e1ed5e" style="font-size:6.75px; font-family:Arial;" text-anchor="middle"><textPath startOffset="21.46611528233685" xlink:href="#id35">November</textPath></text><line stroke="#e1ed5e" stroke-width="0.3" x1="56.762969772571076" x2="54.21961505331055" y1="26.818313649435495" y2="22.513508569990535" /><path d="M 56.25429882871897 25.957352633546506 a86.0,86.0 0 0,1 42.265352541879196,-11.944610805530505" fill="none" id="id36" stroke="none" /><text fill="#e1ed5e" style="font-size:6.75px; font-family:Arial;" text-anchor="middle"><textPath startOffset="22.20632615414155" xlink:href="#id36">December</textPath></text></svg>